<?xml version="1.0" encoding="UTF-8"?>
<svg version="1.1" xmlns="http://www.w3.org/2000/svg" width="426" height="114">
<path d="M0 0 C1.26884537 -0.01606293 2.53769073 -0.03212585 3.84498596 -0.04867554 C5.23380865 -0.06016778 6.62263889 -0.07077551 8.01147461 -0.08056641 C8.71335844 -0.08589008 9.41524227 -0.09121376 10.13839531 -0.09669876 C13.85869121 -0.12341643 17.57895384 -0.1427895 21.29931641 -0.15722656 C24.36342505 -0.17052339 27.426861 -0.1982971 30.49072266 -0.23925781 C34.20308843 -0.28887899 37.91484789 -0.31338388 41.62753105 -0.32045364 C43.03441426 -0.32712087 44.44128637 -0.34222339 45.84797859 -0.36634445 C54.48554379 -0.50592052 61.7151197 -0.08460258 68.85131836 5.19287109 C77.45523468 14.10726237 77.16164622 26.26853403 77.15209961 37.94677734 C77.15638474 39.12827866 77.16066986 40.30977997 77.16508484 41.52708435 C77.17079284 44.00869103 77.17135468 46.49031442 77.16699219 48.97192383 C77.16382426 52.74833842 77.18736466 56.52397444 77.21264648 60.30029297 C77.21491918 62.72412012 77.21562311 65.14794935 77.21459961 67.57177734 C77.22380936 68.68871475 77.2330191 69.80565216 77.24250793 70.95643616 C77.18814763 80.24993966 76.00652007 88.38233929 69.83959961 95.62255859 C61.93630142 101.86445618 54.57462039 101.77388733 44.84350586 101.68896484 C43.3895765 101.68912008 41.93564672 101.69061308 40.48171997 101.69337463 C37.44734207 101.69475307 34.41344006 101.68229181 31.37915039 101.65942383 C27.50105882 101.63098938 23.62375382 101.63379745 19.74560356 101.64651394 C16.74803003 101.65348573 13.75063661 101.64566569 10.75308609 101.63325691 C9.3234336 101.62876053 7.89376166 101.62838967 6.46410751 101.63232231 C4.46407612 101.63525028 2.46404895 101.61651124 0.46411133 101.59692383 C-1.23843307 101.58881935 -1.23843307 101.58881935 -2.97537231 101.58055115 C-10.05204428 100.71600115 -14.79761454 96.53532057 -19.14868164 91.19287109 C-23.61169371 83.71123995 -23.30764866 75.36100031 -23.31665039 66.94287109 C-23.31997879 65.85256592 -23.32330719 64.76226074 -23.32673645 63.63891602 C-23.3317909 61.3325238 -23.33414523 59.02612431 -23.33398438 56.71972656 C-23.33615677 53.23278336 -23.35428958 49.74616405 -23.37329102 46.25927734 C-23.4576821 14.34428482 -23.4576821 14.34428482 -16.80102539 6.74365234 C-11.64792828 1.90729406 -7.09109814 0.081577 0 0 Z " fill="#024AAC" transform="translate(30.148681640625,6.80712890625)"/>
<path d="M0 0 C1.19009674 0.0028299 2.38019348 0.00565979 3.60635376 0.00857544 C7.39652687 0.01974433 11.18646116 0.04484333 14.9765625 0.0703125 C17.55077783 0.08034653 20.12499688 0.08947165 22.69921875 0.09765625 C29.00008108 0.11967293 35.30080472 0.153118 41.6015625 0.1953125 C41.6015625 1.5153125 41.6015625 2.8353125 41.6015625 4.1953125 C42.9215625 4.1953125 44.2415625 4.1953125 45.6015625 4.1953125 C45.6015625 2.8753125 45.6015625 1.5553125 45.6015625 0.1953125 C46.9215625 0.1953125 48.2415625 0.1953125 49.6015625 0.1953125 C49.6015625 0.8553125 49.6015625 1.5153125 49.6015625 2.1953125 C52.2415625 2.1953125 54.8815625 2.1953125 57.6015625 2.1953125 C57.6015625 3.5153125 57.6015625 4.8353125 57.6015625 6.1953125 C58.2615625 6.1953125 58.9215625 6.1953125 59.6015625 6.1953125 C59.6015625 7.5153125 59.6015625 8.8353125 59.6015625 10.1953125 C60.2615625 10.1953125 60.9215625 10.1953125 61.6015625 10.1953125 C61.6015625 10.8553125 61.6015625 11.5153125 61.6015625 12.1953125 C62.2615625 12.1953125 62.9215625 12.1953125 63.6015625 12.1953125 C63.6015625 15.4953125 63.6015625 18.7953125 63.6015625 22.1953125 C62.2815625 22.1953125 60.9615625 22.1953125 59.6015625 22.1953125 C59.6015625 23.5153125 59.6015625 24.8353125 59.6015625 26.1953125 C58.9415625 26.1953125 58.2815625 26.1953125 57.6015625 26.1953125 C57.1065625 25.2053125 57.1065625 25.2053125 56.6015625 24.1953125 C55.9415625 24.5253125 55.2815625 24.8553125 54.6015625 25.1953125 C52.4765625 24.7578125 52.4765625 24.7578125 50.6015625 24.1953125 C50.6015625 23.5353125 50.6015625 22.8753125 50.6015625 22.1953125 C49.1165625 22.6903125 49.1165625 22.6903125 47.6015625 23.1953125 C48.3853125 23.7521875 49.1690625 24.3090625 49.9765625 24.8828125 C52.72425559 27.30339927 53.62223867 28.72316436 54.6015625 32.1953125 C54.6015625 33.1853125 54.6015625 34.1753125 54.6015625 35.1953125 C51.3015625 35.1953125 48.0015625 35.1953125 44.6015625 35.1953125 C43.6115625 33.2153125 43.6115625 33.2153125 42.6015625 31.1953125 C39.61158425 29.70032337 36.90113475 30.07953804 33.6015625 30.1953125 C32.6115625 30.5253125 31.6215625 30.8553125 30.6015625 31.1953125 C31.15188348 34.6259408 31.15188348 34.6259408 32.6015625 38.1953125 C35.28933553 40.0095593 37.98030074 40.96637351 41.0078125 42.08203125 C52.78946948 46.57112645 52.78946948 46.57112645 55.6015625 52.1953125 C56.14800288 57.17598223 56.14360925 61.0911432 53.9140625 65.6328125 C49.96843524 70.00499405 46.08381925 71.83405797 40.3046875 72.43359375 C34.207744 72.61805542 29.5459809 71.94473843 24.6015625 68.1953125 C20.64350674 64.13132338 19.6015625 62.03294956 19.6015625 56.1953125 C22.9015625 56.1953125 26.2015625 56.1953125 29.6015625 56.1953125 C30.2821875 57.649375 30.2821875 57.649375 30.9765625 59.1328125 C32.25942471 62.26610832 32.25942471 62.26610832 34.6015625 63.1953125 C39.93123458 63.53623291 39.93123458 63.53623291 44.6015625 61.1953125 C45.13963383 57.18421638 45.13963383 57.18421638 43.47265625 53.65234375 C40.93208668 51.67398791 38.3290114 50.86518536 35.2890625 49.8203125 C29.22188404 47.57045679 24.6389888 45.62189309 21.2265625 39.8828125 C21.0203125 39.3259375 20.8140625 38.7690625 20.6015625 38.1953125 C20.2715625 39.5153125 19.9415625 40.8353125 19.6015625 42.1953125 C20.2615625 42.1953125 20.9215625 42.1953125 21.6015625 42.1953125 C21.6015625 42.8553125 21.6015625 43.5153125 21.6015625 44.1953125 C22.5915625 44.6903125 22.5915625 44.6903125 23.6015625 45.1953125 C21.6215625 45.6903125 21.6215625 45.6903125 19.6015625 46.1953125 C19.6015625 46.8553125 19.6015625 47.5153125 19.6015625 48.1953125 C18.2815625 48.1953125 16.9615625 48.1953125 15.6015625 48.1953125 C15.6015625 47.5353125 15.6015625 46.8753125 15.6015625 46.1953125 C16.2615625 46.1953125 16.9215625 46.1953125 17.6015625 46.1953125 C17.6015625 45.2053125 17.6015625 44.2153125 17.6015625 43.1953125 C16.2815625 42.8653125 14.9615625 42.5353125 13.6015625 42.1953125 C13.6015625 41.5353125 13.6015625 40.8753125 13.6015625 40.1953125 C14.2615625 40.1953125 14.9215625 40.1953125 15.6015625 40.1953125 C17.13940403 35.5817879 17.34898109 31.75809681 15.2265625 27.3203125 C13.77396208 25.09866425 13.77396208 25.09866425 11.6015625 24.1953125 C11.6015625 23.5353125 11.6015625 22.8753125 11.6015625 22.1953125 C10.2815625 22.1953125 8.9615625 22.1953125 7.6015625 22.1953125 C7.6015625 21.5353125 7.6015625 20.8753125 7.6015625 20.1953125 C3.61123409 19.59266937 3.61123409 19.59266937 -0.3984375 19.1953125 C-0.7284375 19.5253125 -1.0584375 19.8553125 -1.3984375 20.1953125 C-0.1815625 20.4634375 1.0353125 20.7315625 2.2890625 21.0078125 C7.03979043 22.19969124 11.67616343 24.0997538 14.6015625 28.1953125 C15.2890625 31.8828125 15.2890625 31.8828125 15.6015625 35.1953125 C12.22433314 35.48044444 8.96662898 35.66192041 5.6015625 35.1953125 C3.9765625 32.6953125 3.9765625 32.6953125 2.6015625 30.1953125 C-0.27233468 29.57733461 -2.41116088 29.86339288 -5.3984375 30.1953125 C-7.61739886 32.02003141 -7.61739886 32.02003141 -7.7734375 34.6328125 C-7.66090191 37.267325 -7.66090191 37.267325 -5.7734375 38.70703125 C-2.95463008 40.47342209 -0.16471091 41.47928747 2.9765625 42.5703125 C8.52572148 44.63410084 13.80897337 46.61013425 16.6015625 52.1953125 C17.14800288 57.17598223 17.14360925 61.0911432 14.9140625 65.6328125 C11.69316302 69.20191733 8.40566964 71.50901148 3.6015625 72.1953125 C-3.6417476 72.54579525 -9.38642174 71.58245913 -15.3984375 67.1953125 C-18.30391255 63.48832709 -18.72338219 60.85285311 -18.3984375 56.1953125 C-15.4284375 56.1953125 -12.4584375 56.1953125 -9.3984375 56.1953125 C-8.7178125 57.649375 -8.7178125 57.649375 -8.0234375 59.1328125 C-6.74057529 62.26610832 -6.74057529 62.26610832 -4.3984375 63.1953125 C-2.48343447 63.35430104 -2.48343447 63.35430104 -0.3984375 63.3203125 C0.3028125 63.32289062 1.0040625 63.32546875 1.7265625 63.328125 C3.69310025 63.30908486 3.69310025 63.30908486 5.6015625 62.1953125 C5.6015625 59.5553125 5.6015625 56.9153125 5.6015625 54.1953125 C5.06789063 53.96457031 4.53421875 53.73382813 3.984375 53.49609375 C1.51445362 52.41496899 -0.94306554 51.30908947 -3.3984375 50.1953125 C-4.28402344 49.79828125 -5.16960938 49.40125 -6.08203125 48.9921875 C-15.18805414 44.7165512 -15.18805414 44.7165512 -17.3984375 40.1953125 C-18.05800448 35.50074752 -17.99689509 31.56321557 -16.0859375 27.1953125 C-14.3984375 25.1953125 -14.3984375 25.1953125 -11.3984375 23.1953125 C-13.0484375 23.5253125 -14.6984375 23.8553125 -16.3984375 24.1953125 C-16.3984375 24.8553125 -16.3984375 25.5153125 -16.3984375 26.1953125 C-17.0584375 26.1953125 -17.7184375 26.1953125 -18.3984375 26.1953125 C-18.3984375 27.1853125 -18.3984375 28.1753125 -18.3984375 29.1953125 C-19.0584375 29.5253125 -19.7184375 29.8553125 -20.3984375 30.1953125 C-21.0584375 31.1853125 -21.7184375 32.1753125 -22.3984375 33.1953125 C-22.3984375 27.5853125 -22.3984375 21.9753125 -22.3984375 16.1953125 C-23.7184375 16.1953125 -25.0384375 16.1953125 -26.3984375 16.1953125 C-26.3984375 14.8753125 -26.3984375 13.5553125 -26.3984375 12.1953125 C-25.7384375 12.1953125 -25.0784375 12.1953125 -24.3984375 12.1953125 C-24.3984375 10.8753125 -24.3984375 9.5553125 -24.3984375 8.1953125 C-23.7384375 8.1953125 -23.0784375 8.1953125 -22.3984375 8.1953125 C-22.3984375 6.8753125 -22.3984375 5.5553125 -22.3984375 4.1953125 C-21.0784375 4.1953125 -19.7584375 4.1953125 -18.3984375 4.1953125 C-18.3984375 3.5353125 -18.3984375 2.8753125 -18.3984375 2.1953125 C-12.40528144 -0.46524372 -6.42133569 -0.05762802 0 0 Z " fill="#0149AE" transform="translate(38.3984375,9.8046875)"/>
<path d="M0 0 C1.5675 0.020625 3.135 0.04125 4.75 0.0625 C4.75 4.0225 4.75 7.9825 4.75 12.0625 C2.11 12.3925 -0.53 12.7225 -3.25 13.0625 C-3.58 15.3725 -3.91 17.6825 -4.25 20.0625 C1.36 20.0625 6.97 20.0625 12.75 20.0625 C13.059375 18.268125 13.36875 16.47375 13.6875 14.625 C14.625 9.1875 14.625 9.1875 15.75 8.0625 C17.60287502 7.99023498 19.45833878 7.9786878 21.3125 8 C22.32441406 8.00902344 23.33632813 8.01804687 24.37890625 8.02734375 C25.16136719 8.03894531 25.94382812 8.05054688 26.75 8.0625 C28.01237731 10.58725462 27.84856404 12.37450466 27.8125 15.1875 C27.80347656 16.09757812 27.79445313 17.00765625 27.78515625 17.9453125 C27.77355469 18.64398438 27.76195312 19.34265625 27.75 20.0625 C29.703125 20.02994792 31.65625 19.99739583 33.609375 19.96484375 C35.78292403 20.06400201 37.66306537 20.46556149 39.75 21.0625 C39.77687279 22.87492052 39.79633715 24.68745233 39.8125 26.5 C39.82410156 27.50933594 39.83570313 28.51867187 39.84765625 29.55859375 C39.75 32.0625 39.75 32.0625 38.75 33.0625 C35.12 33.0625 31.49 33.0625 27.75 33.0625 C27.75 40.3225 27.75 47.5825 27.75 55.0625 C31.38 55.3925 35.01 55.7225 38.75 56.0625 C39.72229218 59.95166872 39.90031917 63.07904197 39.75 67.0625 C37.84169972 68.97080028 34.60226111 68.28065347 32.0625 68.3125 C30.84175781 68.33828125 29.62101562 68.3640625 28.36328125 68.390625 C22.90488295 67.89494342 19.7784632 66.0909632 15.9375 62.25 C11.87336381 56.32797298 12.62319313 49.62274896 12.6875 42.6875 C12.69201172 41.76066406 12.69652344 40.83382812 12.70117188 39.87890625 C12.71288406 37.60674272 12.73081706 35.33461273 12.75 33.0625 C7.14 33.0625 1.53 33.0625 -4.25 33.0625 C-4.25 44.6125 -4.25 56.1625 -4.25 68.0625 C-8.54 68.0625 -12.83 68.0625 -17.25 68.0625 C-18.25 67.0625 -18.25 67.0625 -18.36352539 63.82788086 C-18.36336631 62.39435874 -18.35767407 60.96083088 -18.34765625 59.52734375 C-18.3462413 58.77409317 -18.34482635 58.02084259 -18.34336853 57.24476624 C-18.33775376 54.8298044 -18.32519883 52.41493399 -18.3125 50 C-18.3074869 48.36653779 -18.30292366 46.73307414 -18.29882812 45.09960938 C-18.28777954 41.08720415 -18.27050506 37.07486759 -18.25 33.0625 C-19.054375 33.083125 -19.85875 33.10375 -20.6875 33.125 C-23.25 33.0625 -23.25 33.0625 -24.25 32.0625 C-24.32226502 30.20962498 -24.3338122 28.35416122 -24.3125 26.5 C-24.30347656 25.48808594 -24.29445312 24.47617187 -24.28515625 23.43359375 C-24.27355469 22.65113281 -24.26195312 21.86867188 -24.25 21.0625 C-22.27 21.0625 -20.29 21.0625 -18.25 21.0625 C-18.29125 20.051875 -18.3325 19.04125 -18.375 18 C-18.22173192 13.17205547 -18.0408306 9.0698542 -14.69921875 5.32421875 C-9.86852723 0.9900437 -6.48787574 -0.08536679 0 0 Z " fill="#ECECEC" transform="translate(239.25,24.9375)"/>
<path d="M0 0 C5.36062291 3.5032141 8.8072174 7.90593893 10.21875 14.1640625 C10.43208976 15.49350606 10.62950043 16.82618878 10.78125 18.1640625 C8.01672967 19.54632266 5.7351137 19.25931637 2.65625 19.2265625 C1.56054688 19.21753906 0.46484375 19.20851563 -0.6640625 19.19921875 C-1.50710937 19.18761719 -2.35015625 19.17601563 -3.21875 19.1640625 C-4.1953125 17.37369792 -5.171875 15.58333333 -6.1484375 13.79296875 C-7.13285024 11.99787935 -7.13285024 11.99787935 -9.21875 11.1640625 C-14.54842208 10.82314209 -14.54842208 10.82314209 -19.21875 13.1640625 C-19.46890873 16.74763491 -19.46890873 16.74763491 -19.21875 20.1640625 C-14.46350986 22.68154258 -9.79810355 24.69080607 -4.71875 26.4765625 C1.81851256 28.94417032 7.75854466 32.07176793 10.9609375 38.55078125 C12.59433903 43.75433183 12.8157049 49.31089154 10.94140625 54.48046875 C7.51678099 60.55716071 2.31165438 63.98726104 -4.21875 66.1640625 C-13.4709403 66.94909683 -21.48703413 66.88075589 -29.21875 61.1640625 C-32.22958904 58.37439884 -34.91231901 55.08335548 -36.21875 51.1640625 C-36.2964846 48.83202438 -36.30842728 46.49567191 -36.21875 44.1640625 C-25.45718416 42.64009348 -25.45718416 42.64009348 -22.21875 44.1640625 C-20.59375 47.6015625 -20.59375 47.6015625 -19.21875 51.1640625 C-16.096748 53.24539717 -15.28608011 53.4378447 -11.71875 53.4140625 C-10.55859375 53.42179687 -10.55859375 53.42179687 -9.375 53.4296875 C-6.92361156 53.29144312 -6.92361156 53.29144312 -4.21875 51.1640625 C-3.10211123 48.21294576 -3.01885172 46.7133405 -4.1015625 43.73828125 C-7.77413593 39.27291982 -13.29498897 38.19986121 -18.640625 36.37890625 C-25.71728067 33.79887554 -30.7769348 30.30453175 -34.65625 23.7265625 C-36.01631713 17.53070114 -35.74315705 12.61707284 -32.6953125 7.05859375 C-25.25254404 -2.49099012 -10.83466038 -4.91232483 0 0 Z " fill="#F2F2F2" transform="translate(152.21875,27.8359375)"/>
<path d="M0 0 C4.48636148 3.1198734 7.01973236 6.41798018 8.56640625 11.73046875 C8.75203125 12.96796875 8.93765625 14.20546875 9.12890625 15.48046875 C7.12890625 17.48046875 7.12890625 17.48046875 4.30859375 17.67578125 C3.21804688 17.65257813 2.1275 17.629375 1.00390625 17.60546875 C-0.09179688 17.58742188 -1.1875 17.569375 -2.31640625 17.55078125 C-3.15945313 17.52757813 -4.0025 17.504375 -4.87109375 17.48046875 C-5.34546875 16.34609375 -5.81984375 15.21171875 -6.30859375 14.04296875 C-7.68409794 11.59872749 -8.35684311 10.6605493 -11.03515625 9.72265625 C-15.3388097 9.17593806 -17.14742019 8.99801971 -20.87109375 11.48046875 C-21.12125248 15.06404116 -21.12125248 15.06404116 -20.87109375 18.48046875 C-15.54193604 21.25115915 -10.21235695 23.77890887 -4.62109375 25.98046875 C1.37172949 28.44991196 5.23140353 30.76071485 9.00390625 36.16796875 C10.9085268 41.77601815 10.90077339 47.02014224 9.12890625 52.66796875 C4.93506305 58.56556075 0.20239313 62.64660178 -6.87109375 64.48046875 C-15.05452892 65.30552786 -22.95627939 65.35102252 -29.87109375 60.48046875 C-35.00884738 56.10349787 -37.59255675 51.90726749 -38.77734375 45.265625 C-38.80828125 44.67652344 -38.83921875 44.08742187 -38.87109375 43.48046875 C-37.87109375 42.48046875 -37.87109375 42.48046875 -34.7109375 42.3828125 C-33.42316406 42.39441406 -32.13539063 42.40601563 -30.80859375 42.41796875 C-29.51824219 42.42699219 -28.22789062 42.43601563 -26.8984375 42.4453125 C-25.89941406 42.45691406 -24.90039062 42.46851563 -23.87109375 42.48046875 C-23.43796875 43.59421875 -23.00484375 44.70796875 -22.55859375 45.85546875 C-21.17198256 49.65559209 -21.17198256 49.65559209 -17.87109375 51.48046875 C-15.68922428 51.79626815 -15.68922428 51.79626815 -13.37109375 51.73046875 C-12.2109375 51.73820312 -12.2109375 51.73820312 -11.02734375 51.74609375 C-8.57595531 51.60784937 -8.57595531 51.60784937 -5.87109375 49.48046875 C-5.34036122 45.4083599 -5.34036122 45.4083599 -5.87109375 41.48046875 C-9.73260558 37.43458766 -15.99118226 36.07620428 -21.140625 34.26171875 C-27.36630843 31.96204866 -31.85983448 29.36327371 -35.74609375 23.79296875 C-37.47623799 18.69865516 -37.96432649 13.57796151 -36.14453125 8.421875 C-33.01614508 2.50846211 -28.51727164 -0.84286078 -22.234375 -2.97265625 C-14.19102344 -4.83392769 -7.16896125 -4.10805644 0 0 Z " fill="#F4F4F4" transform="translate(318.87109375,29.51953125)"/>
<path d="M0 0 C5.36088877 5.31019479 7.4786008 11.04603106 7.83984375 18.51171875 C7.65234375 21.63671875 7.65234375 21.63671875 6.65234375 22.63671875 C4.13140299 22.72519618 1.63803482 22.75199176 -0.8828125 22.734375 C-2.01268837 22.73225258 -2.01268837 22.73225258 -3.16539001 22.73008728 C-5.58035185 22.72447251 -7.99522226 22.71191758 -10.41015625 22.69921875 C-12.04361846 22.69420565 -13.67708211 22.68964241 -15.31054688 22.68554688 C-19.3229521 22.67449829 -23.33528866 22.65722381 -27.34765625 22.63671875 C-25.23439099 27.34514499 -25.23439099 27.34514499 -21.34765625 30.63671875 C-18.30589416 31.11847113 -15.39113749 31.11052077 -12.34765625 30.63671875 C-10.97332715 29.34568232 -9.63869268 28.01104785 -8.34765625 26.63671875 C-4.13869195 25.51731335 0.32041936 25.50134611 4.65234375 25.63671875 C5.40234375 27.26171875 5.40234375 27.26171875 5.65234375 29.63671875 C2.22732316 36.20134155 -3.24238641 41.3551145 -10.34765625 43.63671875 C-18.9341985 44.70581641 -26.31646268 43.91329258 -33.34765625 38.63671875 C-38.74358957 33.17347649 -41.36427882 27.50519676 -41.66015625 19.82421875 C-41.46675539 11.78599545 -39.24571332 5.27833856 -33.34765625 -0.36328125 C-22.74971257 -7.71411061 -10.21782801 -8.62978112 0 0 Z M-25.34765625 8.63671875 C-25.67765625 10.28671875 -26.00765625 11.93671875 -26.34765625 13.63671875 C-20.07765625 13.63671875 -13.80765625 13.63671875 -7.34765625 13.63671875 C-7.67765625 11.98671875 -8.00765625 10.33671875 -8.34765625 8.63671875 C-14.5485726 4.64057266 -18.97653807 5.15063522 -25.34765625 8.63671875 Z " fill="#F3F3F3" transform="translate(372.34765625,50.36328125)"/>
<path d="M0 0 C5.7941582 5.73831089 8.26353011 10.94037934 8.4375 19.25 C8.292872 26.71110352 6.50657863 32.5994671 1.0625 37.87890625 C-6.24088685 43.61925766 -12.80002007 44.92467992 -22 44 C-28.71569856 42.29555979 -33.23734129 38.76941002 -37 33 C-41.2389052 25.83736304 -41.36620398 17.5163708 -39.37890625 9.4921875 C-36.66073294 3.33099467 -31.25792559 -1.29346755 -25.375 -4.375 C-24.59125 -4.58125 -23.8075 -4.7875 -23 -5 C-22.13375 -5.2475 -21.2675 -5.495 -20.375 -5.75 C-12.92058827 -6.30217865 -5.75171221 -4.94914772 0 0 Z M-25 12 C-26.84467846 15.68935692 -26.35009552 19.96435342 -26 24 C-24.67697045 27.2727573 -23.44152514 28.63206239 -20.75 30.875 C-17.03630199 32.39424009 -14.84345052 32.04821378 -11 31 C-8.13057887 28.73466753 -7.16092388 27.48277163 -6 24 C-5.43415959 18.28718817 -5.75898871 13.92153566 -9 9 C-15.44278395 4.7048107 -20.44925437 6.20814193 -25 12 Z " fill="#F4F4F4" transform="translate(207,50)"/>
<path d="M0 0 C1.26884537 -0.01606293 2.53769073 -0.03212585 3.84498596 -0.04867554 C5.23380865 -0.06016778 6.62263889 -0.07077551 8.01147461 -0.08056641 C8.71335844 -0.08589008 9.41524227 -0.09121376 10.13839531 -0.09669876 C13.85869121 -0.12341643 17.57895384 -0.1427895 21.29931641 -0.15722656 C24.36342505 -0.17052339 27.426861 -0.1982971 30.49072266 -0.23925781 C34.20308843 -0.28887899 37.91484789 -0.31338388 41.62753105 -0.32045364 C43.03441426 -0.32712087 44.44128637 -0.34222339 45.84797859 -0.36634445 C54.48554379 -0.50592052 61.7151197 -0.08460258 68.85131836 5.19287109 C77.45523468 14.10726237 77.16164622 26.26853403 77.15209961 37.94677734 C77.15638474 39.12827866 77.16066986 40.30977997 77.16508484 41.52708435 C77.17079284 44.00869103 77.17135468 46.49031442 77.16699219 48.97192383 C77.16382426 52.74833842 77.18736466 56.52397444 77.21264648 60.30029297 C77.21491918 62.72412012 77.21562311 65.14794935 77.21459961 67.57177734 C77.22380936 68.68871475 77.2330191 69.80565216 77.24250793 70.95643616 C77.18814763 80.24993966 76.00652007 88.38233929 69.83959961 95.62255859 C61.93630142 101.86445618 54.57462039 101.77388733 44.84350586 101.68896484 C43.3895765 101.68912008 41.93564672 101.69061308 40.48171997 101.69337463 C37.44734207 101.69475307 34.41344006 101.68229181 31.37915039 101.65942383 C27.50105882 101.63098938 23.62375382 101.63379745 19.74560356 101.64651394 C16.74803003 101.65348573 13.75063661 101.64566569 10.75308609 101.63325691 C9.3234336 101.62876053 7.89376166 101.62838967 6.46410751 101.63232231 C4.46407612 101.63525028 2.46404895 101.61651124 0.46411133 101.59692383 C-1.23843307 101.58881935 -1.23843307 101.58881935 -2.97537231 101.58055115 C-8.46434272 100.90996908 -12.28523402 98.46812557 -16.02368164 94.50537109 C-16.61922852 93.88275391 -17.21477539 93.26013672 -17.82836914 92.61865234 C-18.48192383 91.91289062 -18.48192383 91.91289062 -19.14868164 91.19287109 C-18.15868164 90.20287109 -18.15868164 90.20287109 -17.14868164 89.19287109 C-16.15868164 89.19287109 -15.16868164 89.19287109 -14.14868164 89.19287109 C-14.14868164 90.51287109 -14.14868164 91.83287109 -14.14868164 93.19287109 C-13.52993164 93.33724609 -12.91118164 93.48162109 -12.27368164 93.63037109 C-10.14868164 94.19287109 -10.14868164 94.19287109 -8.14868164 95.19287109 C-8.14868164 95.85287109 -8.14868164 96.51287109 -8.14868164 97.19287109 C-1.34970235 98.44993015 5.40377488 98.33692517 12.30053711 98.32568359 C13.59071243 98.32664032 14.88088776 98.32759705 16.2101593 98.32858276 C18.929181 98.33005045 21.64816966 98.32793415 24.3671875 98.32324219 C27.84733279 98.31752833 31.32740123 98.32084022 34.80754375 98.32681465 C38.13854769 98.33129917 41.46953099 98.3281592 44.80053711 98.32568359 C46.04848557 98.32770782 47.29643402 98.32973206 48.5821991 98.33181763 C49.7405275 98.32866547 50.8988559 98.32551331 52.09228516 98.32226562 C53.11041794 98.32147003 54.12855072 98.32067444 55.17753601 98.31985474 C57.56419259 98.20650731 59.5714674 97.87668002 61.85131836 97.19287109 C61.85131836 96.53287109 61.85131836 95.87287109 61.85131836 95.19287109 C63.17131836 95.19287109 64.49131836 95.19287109 65.85131836 95.19287109 C65.85131836 94.53287109 65.85131836 93.87287109 65.85131836 93.19287109 C67.72631836 91.06787109 67.72631836 91.06787109 69.85131836 89.19287109 C70.51131836 89.19287109 71.17131836 89.19287109 71.85131836 89.19287109 C71.85131836 87.21287109 71.85131836 85.23287109 71.85131836 83.19287109 C72.51131836 83.19287109 73.17131836 83.19287109 73.85131836 83.19287109 C73.85131836 64.05287109 73.85131836 44.91287109 73.85131836 25.19287109 C73.19131836 25.19287109 72.53131836 25.19287109 71.85131836 25.19287109 C71.85131836 21.89287109 71.85131836 18.59287109 71.85131836 15.19287109 C71.19131836 15.19287109 70.53131836 15.19287109 69.85131836 15.19287109 C69.85131836 14.53287109 69.85131836 13.87287109 69.85131836 13.19287109 C69.19131836 13.19287109 68.53131836 13.19287109 67.85131836 13.19287109 C67.85131836 11.87287109 67.85131836 10.55287109 67.85131836 9.19287109 C67.19131836 9.19287109 66.53131836 9.19287109 65.85131836 9.19287109 C65.85131836 7.87287109 65.85131836 6.55287109 65.85131836 5.19287109 C63.21131836 5.19287109 60.57131836 5.19287109 57.85131836 5.19287109 C57.85131836 4.53287109 57.85131836 3.87287109 57.85131836 3.19287109 C56.53131836 3.19287109 55.21131836 3.19287109 53.85131836 3.19287109 C53.85131836 4.51287109 53.85131836 5.83287109 53.85131836 7.19287109 C52.53131836 7.19287109 51.21131836 7.19287109 49.85131836 7.19287109 C49.85131836 6.53287109 49.85131836 5.87287109 49.85131836 5.19287109 C36.32131836 5.19287109 22.79131836 5.19287109 8.85131836 5.19287109 C8.85131836 4.86287109 8.85131836 4.53287109 8.85131836 4.19287109 C6.80972741 4.16560949 4.76802873 4.14635764 2.72631836 4.13037109 C1.02088867 4.11296875 1.02088867 4.11296875 -0.71899414 4.09521484 C-3.96159724 4.18754409 -6.96800776 4.57897203 -10.14868164 5.19287109 C-10.14868164 5.85287109 -10.14868164 6.51287109 -10.14868164 7.19287109 C-11.46868164 7.19287109 -12.78868164 7.19287109 -14.14868164 7.19287109 C-14.14868164 8.51287109 -14.14868164 9.83287109 -14.14868164 11.19287109 C-14.80868164 11.19287109 -15.46868164 11.19287109 -16.14868164 11.19287109 C-16.14868164 12.51287109 -16.14868164 13.83287109 -16.14868164 15.19287109 C-16.80868164 15.19287109 -17.46868164 15.19287109 -18.14868164 15.19287109 C-18.14868164 17.17287109 -18.14868164 19.15287109 -18.14868164 21.19287109 C-18.80868164 21.19287109 -19.46868164 21.19287109 -20.14868164 21.19287109 C-20.14868164 40.99287109 -20.14868164 60.79287109 -20.14868164 81.19287109 C-21.13868164 81.68787109 -21.13868164 81.68787109 -22.14868164 82.19287109 C-23.0294686 79.15554819 -23.27986442 76.43732257 -23.29394531 73.27929688 C-23.30032516 72.30372833 -23.30670502 71.32815979 -23.3132782 70.32302856 C-23.31439102 69.27202972 -23.31550385 68.22103088 -23.31665039 67.13818359 C-23.31997879 66.04504852 -23.32330719 64.95191345 -23.32673645 63.82565308 C-23.33180086 61.50730815 -23.33414493 59.18895592 -23.33398438 56.87060547 C-23.33615192 53.36592112 -23.35426024 49.86156146 -23.37329102 46.35693359 C-23.45761852 14.34421222 -23.45761852 14.34421222 -16.80102539 6.74365234 C-11.64792828 1.90729406 -7.09109814 0.081577 0 0 Z " fill="#084BA5" transform="translate(30.148681640625,6.80712890625)"/>
<path d="M0 0 C3.70862692 1.73434863 6.73216423 3.47604721 8.61328125 7.23828125 C9.30078125 10.48828125 9.30078125 10.48828125 9.61328125 13.23828125 C6.31328125 13.23828125 3.01328125 13.23828125 -0.38671875 13.23828125 C-1.04671875 11.91828125 -1.70671875 10.59828125 -2.38671875 9.23828125 C-5.376697 7.74329212 -8.0871465 8.12250679 -11.38671875 8.23828125 C-12.37671875 8.56828125 -13.36671875 8.89828125 -14.38671875 9.23828125 C-13.83639777 12.66890955 -13.83639777 12.66890955 -12.38671875 16.23828125 C-9.69894572 18.05252805 -7.00798051 19.00934226 -3.98046875 20.125 C7.80118823 24.6140952 7.80118823 24.6140952 10.61328125 30.23828125 C11.15972163 35.21895098 11.155328 39.13411195 8.92578125 43.67578125 C4.98015399 48.0479628 1.095538 49.87702672 -4.68359375 50.4765625 C-10.78053725 50.66102417 -15.44230035 49.98770718 -20.38671875 46.23828125 C-24.34477451 42.17429213 -25.38671875 40.07591831 -25.38671875 34.23828125 C-22.08671875 34.23828125 -18.78671875 34.23828125 -15.38671875 34.23828125 C-14.93296875 35.20765625 -14.47921875 36.17703125 -14.01171875 37.17578125 C-12.72885654 40.30907707 -12.72885654 40.30907707 -10.38671875 41.23828125 C-5.05704667 41.57920166 -5.05704667 41.57920166 -0.38671875 39.23828125 C0.15135258 35.22718513 0.15135258 35.22718513 -1.515625 31.6953125 C-4.05619457 29.71695666 -6.65926985 28.90815411 -9.69921875 27.86328125 C-15.49892438 25.7126109 -20.19009183 23.82461091 -23.53515625 18.36328125 C-25.03778386 14.61360501 -24.44826517 11.06669704 -23.38671875 7.23828125 C-21.13671875 4.36328125 -21.13671875 4.36328125 -18.38671875 2.23828125 C-17.68546875 1.64015625 -16.98421875 1.04203125 -16.26171875 0.42578125 C-11.05191104 -1.72609585 -5.36838775 -1.71331524 0 0 Z " fill="#EAF5F6" transform="translate(83.38671875,31.76171875)"/>
<path d="M0 0 C6.22093023 4.35465116 6.22093023 4.35465116 7.25 9.5 C7.3325 10.5725 7.415 11.645 7.5 12.75 C4.12277064 13.03513194 0.86506648 13.21660791 -2.5 12.75 C-4.125 10.25 -4.125 10.25 -5.5 7.75 C-8.37389718 7.13202211 -10.51272338 7.41808038 -13.5 7.75 C-15.71896136 9.57471891 -15.71896136 9.57471891 -15.875 12.1875 C-15.76246441 14.8220125 -15.76246441 14.8220125 -13.875 16.26171875 C-11.05619258 18.02810959 -8.26627341 19.03397497 -5.125 20.125 C0.42415898 22.18878834 5.70741087 24.16482175 8.5 29.75 C9.04644038 34.73066973 9.04204675 38.6458307 6.8125 43.1875 C3.59160052 46.75660483 0.30410714 49.06369898 -4.5 49.75 C-11.7433101 50.10048275 -17.48798424 49.13714663 -23.5 44.75 C-26.40547505 41.04301459 -26.82494469 38.40754061 -26.5 33.75 C-23.53 33.75 -20.56 33.75 -17.5 33.75 C-17.04625 34.719375 -16.5925 35.68875 -16.125 36.6875 C-14.84213779 39.82079582 -14.84213779 39.82079582 -12.5 40.75 C-10.58499697 40.90898854 -10.58499697 40.90898854 -8.5 40.875 C-7.79875 40.87757812 -7.0975 40.88015625 -6.375 40.8828125 C-4.40846225 40.86377236 -4.40846225 40.86377236 -2.5 39.75 C-2.5 37.11 -2.5 34.47 -2.5 31.75 C-3.03367187 31.51925781 -3.56734375 31.28851563 -4.1171875 31.05078125 C-6.58710888 29.96965649 -9.04462804 28.86377697 -11.5 27.75 C-12.38558594 27.35296875 -13.27117188 26.9559375 -14.18359375 26.546875 C-23.28961664 22.2712387 -23.28961664 22.2712387 -25.5 17.75 C-26.1402188 13.19314857 -26.03791725 9.2055408 -24.4375 4.875 C-17.8486342 -2.35149797 -9.02812676 -3.22433099 0 0 Z " fill="#F5FAF7" transform="translate(46.5,32.25)"/>
<path d="M0 0 C1.093125 0.00257812 2.18625 0.00515625 3.3125 0.0078125 C4.405625 0.00523438 5.49875 0.00265625 6.625 0 C9.3125 0.1328125 9.3125 0.1328125 10.3125 1.1328125 C10.41189626 3.18294096 10.44049553 5.23652642 10.44189453 7.2890625 C10.44504669 8.60712891 10.44819885 9.92519531 10.45144653 11.28320312 C10.44965675 12.73307325 10.4476058 14.18294308 10.4453125 15.6328125 C10.44598557 17.10872412 10.44695563 18.58463563 10.44821167 20.06054688 C10.44968848 23.15756279 10.44753464 26.25454992 10.44287109 29.3515625 C10.4371738 33.32989799 10.4404529 37.30816602 10.44644356 41.28649902 C10.45004963 44.33529167 10.44891037 47.38406821 10.44631577 50.43286133 C10.44564662 51.90014656 10.44647447 53.36743324 10.44879532 54.8347168 C10.45132257 56.88199843 10.4467906 58.92928516 10.44189453 60.9765625 C10.44109894 62.14380859 10.44030334 63.31105469 10.43948364 64.51367188 C10.3125 67.1328125 10.3125 67.1328125 9.3125 68.1328125 C7.31450428 68.23155066 5.31292842 68.26253049 3.3125 68.2578125 C2.219375 68.26039062 1.12625 68.26296875 0 68.265625 C-2.6875 68.1328125 -2.6875 68.1328125 -3.6875 67.1328125 C-3.78689626 65.08268404 -3.81549553 63.02909858 -3.81689453 60.9765625 C-3.82004669 59.65849609 -3.82319885 58.34042969 -3.82644653 56.98242188 C-3.82465675 55.53255175 -3.8226058 54.08268192 -3.8203125 52.6328125 C-3.82098557 51.15690088 -3.82195563 49.68098937 -3.82321167 48.20507812 C-3.82468848 45.10806221 -3.82253464 42.01107508 -3.81787109 38.9140625 C-3.8121738 34.93572701 -3.8154529 30.95745898 -3.82144356 26.97912598 C-3.82504963 23.93033333 -3.82391037 20.88155679 -3.82131577 17.83276367 C-3.82064662 16.36547844 -3.82147447 14.89819176 -3.82379532 13.4309082 C-3.82632257 11.38362657 -3.8217906 9.33633984 -3.81689453 7.2890625 C-3.81609894 6.12181641 -3.81530334 4.95457031 -3.81448364 3.75195312 C-3.64162304 0.18656291 -3.5722733 0.17653676 0 0 Z " fill="#FCFCFC" transform="translate(386.6875,24.8671875)"/>
<path d="M0 0 C3.96 0 7.92 0 12 0 C12 22.44 12 44.88 12 68 C7.71 68 3.42 68 -1 68 C-1.02255338 59.28155659 -1.04091645 50.56313241 -1.05181217 41.84466648 C-1.05704041 37.79674258 -1.06413699 33.74883959 -1.07543945 29.70092773 C-1.08627043 25.79764029 -1.09227728 21.89437301 -1.09487724 17.9910717 C-1.09673111 16.49866353 -1.100351 15.00625652 -1.10573006 13.51385689 C-1.11294331 11.43051861 -1.11399083 9.34726469 -1.11352539 7.26391602 C-1.115746 6.07588882 -1.11796661 4.88786163 -1.12025452 3.66383362 C-1 1 -1 1 0 0 Z " fill="#FCFCFC" transform="translate(404,25)"/>
<path d="M0 0 C0.66 1.32 1.32 2.64 2 4 C3.32 4 4.64 4 6 4 C6 4.66 6 5.32 6 6 C6.99 6.33 7.98 6.66 9 7 C12.49935965 11.27699513 12.26842623 14.72095072 12 20 C10.02 20.99 10.02 20.99 8 22 C8 22.66 8 23.32 8 24 C9.65 24.33 11.3 24.66 13 25 C12.67 25.99 12.34 26.98 12 28 C11.34 28 10.68 28 10 28 C10 28.66 10 29.32 10 30 C11.32 30 12.64 30 14 30 C14 29.34 14 28.68 14 28 C14.66 27.34 15.32 26.68 16 26 C16 25.34 16 24.68 16 24 C15.34 24 14.68 24 14 24 C14 20.7 14 17.4 14 14 C14.33 14 14.66 14 15 14 C15.390625 15.92057292 15.78125 17.84114583 16.171875 19.76171875 C17.70746434 23.91215598 19.89656328 26.41908206 23.8046875 28.4765625 C24.81789062 28.85554688 25.83109375 29.23453125 26.875 29.625 C27.93074219 30.03621094 28.98648438 30.44742188 30.07421875 30.87109375 C31.03972656 31.24363281 32.00523438 31.61617187 33 32 C38.75870348 34.51740696 38.75870348 34.51740696 40 37 C40.3125 39.9375 40.3125 39.9375 40 43 C37.70240442 45.7571147 36.12050037 45.98247267 32.5625 46.5 C28.10086073 45.87380501 26.70715443 44.52750425 24 41 C24 40.01 24 39.02 24 38 C20.7 38 17.4 38 14 38 C15.16376809 42.94601436 16.25675793 46.35792663 20 50 C22.29896738 51.23105995 24.53836544 52.1005566 27 53 C27 53.33 27 53.66 27 54 C24.69 54 22.38 54 20 54 C20 53.34 20 52.68 20 52 C19.34 52 18.68 52 18 52 C18 51.34 18 50.68 18 50 C17.360625 49.71125 16.72125 49.4225 16.0625 49.125 C14 48 14 48 13 46 C12.34 46 11.68 46 11 46 C10.97421875 45.19175781 10.9484375 44.38351563 10.921875 43.55078125 C10.86515625 42.48214844 10.8084375 41.41351563 10.75 40.3125 C10.70359375 39.25675781 10.6571875 38.20101562 10.609375 37.11328125 C9.86633156 33.31709139 8.75546049 31.6951558 6 29 C3.20666152 27.45399811 3.20666152 27.45399811 0.125 26.375 C-0.93203125 25.96378906 -1.9890625 25.55257812 -3.078125 25.12890625 C-4.04234375 24.75636719 -5.0065625 24.38382813 -6 24 C-11.61290323 21.38709677 -11.61290323 21.38709677 -14 19 C-14.35131571 16.25973747 -14.34419875 14.62386024 -13 12.1875 C-9.81103395 10.29405141 -6.60943101 10.4360264 -3 11 C-1 12.3125 -1 12.3125 0 14 C0 14.99 0 15.98 0 17 C3.3 17 6.6 17 10 17 C9.566875 15.741875 9.13375 14.48375 8.6875 13.1875 C8.32205078 12.12595703 8.32205078 12.12595703 7.94921875 11.04296875 C6.45806431 7.83361165 4.84041757 6.41526515 1.67578125 4.8515625 C-1.206222 3.93437023 -3.79934021 3.59281878 -6.8125 3.375 C-7.78832031 3.30023437 -8.76414062 3.22546875 -9.76953125 3.1484375 C-10.50558594 3.09945313 -11.24164063 3.05046875 -12 3 C-12 2.67 -12 2.34 -12 2 C-7.82262526 0.40861915 -4.46839215 -0.21278058 0 0 Z " fill="#0A4AA2" transform="translate(44,28)"/>
<path d="M0 0 C0.33 0 0.66 0 1 0 C1.72050338 3.89980196 2.13214074 7.60724383 2.16113281 11.57128906 C2.17074036 12.63970032 2.1803479 13.70811157 2.19024658 14.80889893 C2.19449646 15.94961853 2.19874634 17.09033813 2.203125 18.265625 C2.20882507 19.45420105 2.21452515 20.6427771 2.22039795 21.86737061 C2.22982802 24.37885656 2.23637399 26.89035478 2.24023438 29.40185547 C2.24993035 33.22255295 2.28096982 37.04271007 2.3125 40.86328125 C2.31903178 43.30989266 2.32428156 45.75650789 2.328125 48.203125 C2.3404718 49.33574768 2.3528186 50.46837036 2.36553955 51.63531494 C2.33957943 60.98635865 1.19572985 69.14188649 -5.01171875 76.4296875 C-12.91501694 82.67158509 -20.27669797 82.58101623 -30.0078125 82.49609375 C-31.46174186 82.49624898 -32.91567164 82.49774199 -34.36959839 82.50050354 C-37.40397629 82.50188198 -40.4378783 82.48942071 -43.47216797 82.46655273 C-47.35025953 82.43811829 -51.22756454 82.44092636 -55.1057148 82.45364285 C-58.10328833 82.46061464 -61.10068175 82.45279459 -64.09823227 82.44038582 C-65.52788476 82.43588944 -66.9575567 82.43551858 -68.38721085 82.43945122 C-70.38724224 82.44237919 -72.38726941 82.42364015 -74.38720703 82.40405273 C-76.08975143 82.39594826 -76.08975143 82.39594826 -77.82669067 82.38768005 C-83.31566108 81.71709798 -87.13655238 79.27525448 -90.875 75.3125 C-91.47054687 74.68988281 -92.06609375 74.06726563 -92.6796875 73.42578125 C-93.33324219 72.72001953 -93.33324219 72.72001953 -94 72 C-93.01 71.01 -93.01 71.01 -92 70 C-91.01 70 -90.02 70 -89 70 C-89 71.32 -89 72.64 -89 74 C-88.38125 74.144375 -87.7625 74.28875 -87.125 74.4375 C-85 75 -85 75 -83 76 C-83 76.66 -83 77.32 -83 78 C-76.20102071 79.25705906 -69.44754348 79.14405408 -62.55078125 79.1328125 C-61.26060593 79.13376923 -59.9704306 79.13472595 -58.64115906 79.13571167 C-55.92213736 79.13717936 -53.2031487 79.13506305 -50.48413086 79.13037109 C-47.00398556 79.12465724 -43.52391712 79.12796912 -40.0437746 79.13394356 C-36.71277067 79.13842808 -33.38178736 79.13528811 -30.05078125 79.1328125 C-28.80283279 79.13483673 -27.55488434 79.13686096 -26.26911926 79.13894653 C-25.11079086 79.13579437 -23.95246246 79.13264221 -22.7590332 79.12939453 C-21.74090042 79.12859894 -20.72276764 79.12780334 -19.67378235 79.12698364 C-17.28712577 79.01363622 -15.27985096 78.68380893 -13 78 C-13 77.34 -13 76.68 -13 76 C-11.68 76 -10.36 76 -9 76 C-9 75.34 -9 74.68 -9 74 C-7.125 71.875 -7.125 71.875 -5 70 C-4.34 70 -3.68 70 -3 70 C-3 68.02 -3 66.04 -3 64 C-2.34 64 -1.68 64 -1 64 C-1.00222061 63.21295181 -1.00444122 62.42590363 -1.00672913 61.61500549 C-1.02673113 54.2130967 -1.04197366 46.81120092 -1.05181217 39.40927219 C-1.0570402 35.60348423 -1.06413638 31.79771852 -1.07543945 27.99194336 C-1.0862712 24.32207456 -1.09227744 20.65222722 -1.09487724 16.98234367 C-1.09673097 15.57925008 -1.1003506 14.17615771 -1.10573006 12.7730732 C-1.11294419 10.8143032 -1.11340809 8.8555118 -1.11352539 6.89672852 C-1.115746 5.77976089 -1.11796661 4.66279327 -1.12025452 3.51197815 C-1 1 -1 1 0 0 Z " fill="#13356B" transform="translate(105,26)"/>
<path d="M0 0 C0.78375 0.04125 1.5675 0.0825 2.375 0.125 C1.59125 0.7025 0.8075 1.28 0 1.875 C-3.13497967 4.56212543 -4.38843554 6.43328904 -4.9609375 10.52734375 C-4.97382813 11.36394531 -4.98671875 12.20054688 -5 13.0625 C-5.02835938 13.89652344 -5.05671875 14.73054688 -5.0859375 15.58984375 C-4.45313111 19.07027888 -3.11184355 20.63401171 -0.625 23.125 C2.16833848 24.67100189 2.16833848 24.67100189 5.25 25.75 C6.30574219 26.15992187 7.36148438 26.56984375 8.44921875 26.9921875 C9.41472656 27.36601563 10.38023438 27.73984375 11.375 28.125 C16.86984536 30.61984536 16.86984536 30.61984536 18.375 32.125 C18.74586093 37.9660596 18.74586093 37.9660596 18.375 40.125 C14.70110037 42.57426642 11.64291164 42.955333 7.375 42.125 C4.375 39.8125 4.375 39.8125 2.375 37.125 C2.375 36.135 2.375 35.145 2.375 34.125 C-0.595 34.125 -3.565 34.125 -6.625 34.125 C-6.315625 35.383125 -6.00625 36.64125 -5.6875 37.9375 C-5.42646484 38.99904297 -5.42646484 38.99904297 -5.16015625 40.08203125 C-4.71489295 41.78183202 -4.18066015 43.45801954 -3.625 45.125 C-5.11 45.62 -5.11 45.62 -6.625 46.125 C-6.625 44.475 -6.625 42.825 -6.625 41.125 C-7.285 41.125 -7.945 41.125 -8.625 41.125 C-9.75 34.375 -9.75 34.375 -8.625 32.125 C-9.285 32.125 -9.945 32.125 -10.625 32.125 C-10.625 31.465 -10.625 30.805 -10.625 30.125 C-9.965 30.125 -9.305 30.125 -8.625 30.125 C-8.625 28.805 -8.625 27.485 -8.625 26.125 C-7.305 26.125 -5.985 26.125 -4.625 26.125 C-4.625 24.805 -4.625 23.485 -4.625 22.125 C-5.285 22.125 -5.945 22.125 -6.625 22.125 C-6.625 16.185 -6.625 10.245 -6.625 4.125 C-5.965 4.125 -5.305 4.125 -4.625 4.125 C-4.625 3.465 -4.625 2.805 -4.625 2.125 C-2.625 0.125 -2.625 0.125 0 0 Z " fill="#164D9A" transform="translate(26.625,31.875)"/>
<path d="M0 0 C0 0.66 0 1.32 0 2 C-0.99 2 -1.98 2 -3 2 C-3.33 2.99 -3.66 3.98 -4 5 C-4.66 5 -5.32 5 -6 5 C-6 5.66 -6 6.32 -6 7 C-7.32 7 -8.64 7 -10 7 C-10 8.32 -10 9.64 -10 11 C-10.66 11 -11.32 11 -12 11 C-12 12.32 -12 13.64 -12 15 C-12.66 15 -13.32 15 -14 15 C-14 16.98 -14 18.96 -14 21 C-14.66 21 -15.32 21 -16 21 C-16 40.8 -16 60.6 -16 81 C-16.99 81.495 -16.99 81.495 -18 82 C-18.88078696 78.9626771 -19.13118278 76.24445147 -19.14526367 73.08642578 C-19.15164352 72.11085724 -19.15802338 71.1352887 -19.16459656 70.13015747 C-19.16570938 69.07915863 -19.1668222 68.02815979 -19.16796875 66.9453125 C-19.17129715 65.85217743 -19.17462555 64.75904236 -19.17805481 63.63278198 C-19.18311922 61.31443705 -19.18546328 58.99608483 -19.18530273 56.67773438 C-19.18747028 53.17305003 -19.2055786 49.66869036 -19.22460938 46.1640625 C-19.30893688 14.15134113 -19.30893688 14.15134113 -12.65234375 6.55078125 C-9.0821906 3.20007014 -5.1255495 0 0 0 Z " fill="#0B3168" transform="translate(26,7)"/>
<path d="M0 0 C5.6 2.2 5.6 2.2 7 5 C7.3125 7.9375 7.3125 7.9375 7 11 C4.70240442 13.7571147 3.12050037 13.98247267 -0.4375 14.5 C-4.89913927 13.87380501 -6.29284557 12.52750425 -9 9 C-9 8.01 -9 7.02 -9 6 C-9.66 6 -10.32 6 -11 6 C-11 5.34 -11 4.68 -11 4 C-11.66 4 -12.32 4 -13 4 C-13 3.34 -13 2.68 -13 2 C-8.65833656 -0.46551476 -4.89707312 -0.5676538 0 0 Z " fill="#0349AD" transform="translate(77,60)"/>
<path d="M0 0 C0.66 0 1.32 0 2 0 C3.33333333 1.33333333 4.66666667 2.66666667 6 4 C5.34 4 4.68 4 4 4 C4 5.98 4 7.96 4 10 C2.02 10 0.04 10 -2 10 C-2 11.98 -2 13.96 -2 16 C-2.66 16 -3.32 16 -4 16 C-4 15.34 -4 14.68 -4 14 C-5.32 14.33 -6.64 14.66 -8 15 C-7.34 15.66 -6.68 16.32 -6 17 C-11.05373588 16.34252368 -14.96643994 15.76483445 -19.125 12.6875 C-21 10 -21 10 -21.5 7.3125 C-21 5 -21 5 -18 3 C-14.29290742 2.66299158 -11.87280471 2.53002823 -8.5625 4.3125 C-7 6 -7 6 -7 9 C-3.7 9 -0.4 9 3 9 C1.515 4.545 1.515 4.545 0 0 Z " fill="#104D9F" transform="translate(90,36)"/>
<path d="M0 0 C1.49080078 0.02707031 1.49080078 0.02707031 3.01171875 0.0546875 C3.77097656 0.07789063 4.53023437 0.10109375 5.3125 0.125 C4.9825 0.785 4.6525 1.445 4.3125 2.125 C3.03375 2.08375 1.755 2.0425 0.4375 2 C-1.70621492 1.88287127 -1.70621492 1.88287127 -3.6875 2.125 C-5.90646136 3.94971891 -5.90646136 3.94971891 -6.0625 6.5625 C-5.92112963 9.15949298 -5.92112963 9.15949298 -4.25 10.75 C-0.5627159 12.72854269 3.3150063 13.9206269 7.3125 15.125 C7.3125 15.455 7.3125 15.785 7.3125 16.125 C-0.11607143 16.26785714 -0.11607143 16.26785714 -3.6875 15.125 C-4.0175 16.115 -4.3475 17.105 -4.6875 18.125 C-3.3675 18.125 -2.0475 18.125 -0.6875 18.125 C-0.6875 18.785 -0.6875 19.445 -0.6875 20.125 C0.6325 20.125 1.9525 20.125 3.3125 20.125 C3.3125 20.785 3.3125 21.445 3.3125 22.125 C4.6325 22.125 5.9525 22.125 7.3125 22.125 C7.3125 22.785 7.3125 23.445 7.3125 24.125 C7.9725 24.125 8.6325 24.125 9.3125 24.125 C9.3125 26.765 9.3125 29.405 9.3125 32.125 C8.9825 32.125 8.6525 32.125 8.3125 32.125 C8.13203125 31.03445312 7.9515625 29.94390625 7.765625 28.8203125 C6.66252028 24.86732502 6.66252028 24.86732502 3.046875 23.3046875 C1.72810671 22.84219361 0.39915576 22.40792374 -0.9375 22 C-6.55267454 20.17975678 -10.36527102 18.22456869 -14.6875 14.125 C-15.94987731 11.60024538 -15.78606404 9.81299534 -15.75 7 C-15.74097656 6.08992188 -15.73195313 5.17984375 -15.72265625 4.2421875 C-15.71105469 3.54351562 -15.69945313 2.84484375 -15.6875 2.125 C-15.3575 2.125 -15.0275 2.125 -14.6875 2.125 C-14.6875 4.105 -14.6875 6.085 -14.6875 8.125 C-11.7175 8.62 -11.7175 8.62 -8.6875 9.125 C-8.749375 8.01125 -8.81125 6.8975 -8.875 5.75 C-8.813125 4.55375 -8.75125 3.3575 -8.6875 2.125 C-5.26655758 -0.15562828 -4.00562778 -0.09425007 0 0 Z " fill="#EAF6FA" transform="translate(36.6875,37.875)"/>
<path d="M0 0 C1.32 0 2.64 0 4 0 C4 0.66 4 1.32 4 2 C5.98 2 7.96 2 10 2 C10 2.66 10 3.32 10 4 C12.01822917 4.16276042 14.03645833 4.32552083 16.0546875 4.48828125 C18 5 18 5 20 8 C20 9.32 20 10.64 20 12 C19.34 12 18.68 12 18 12 C18 12.66 18 13.32 18 14 C15.36 14 12.72 14 10 14 C10 13.34 10 12.68 10 12 C11.32 12 12.64 12 14 12 C14 11.34 14 10.68 14 10 C12.700625 10.020625 11.40125 10.04125 10.0625 10.0625 C8.70834367 10.08399454 7.35243917 10.07148199 6 10 C5.67 9.67 5.34 9.34 5 9 C3.48530552 8.76807135 1.96245438 8.58784762 0.4375 8.4375 C-0.38878906 8.35371094 -1.21507812 8.26992187 -2.06640625 8.18359375 C-2.70449219 8.12300781 -3.34257812 8.06242187 -4 8 C-4 6.68 -4 5.36 -4 4 C-3.34 4 -2.68 4 -2 4 C-2 3.34 -2 2.68 -2 2 C-1.34 2 -0.68 2 0 2 C0 1.34 0 0.68 0 0 Z " fill="#0548A9" transform="translate(24,58)"/>
<path d="M0 0 C3.3 0 6.6 0 10 0 C10.309375 0.94875 10.61875 1.8975 10.9375 2.875 C13.26242495 6.39761356 13.77503367 6.53837198 17.6875 7.375 C19.12117128 7.60822882 20.5581019 7.82467486 22 8 C16 12 16 12 12 12 C12 12.66 12 13.32 12 14 C13.65 14.33 15.3 14.66 17 15 C13.75997529 16.09684578 12.12726305 16.00507175 9.0625 14.5 C4.91148284 12.25767484 1.89082572 9.37253448 0 5 C0 3.35 0 1.7 0 0 Z " fill="#E8F2F1" transform="translate(58,66)"/>
<path d="M0 0 C2.06428157 0.25690181 4.12641094 0.53113046 6.1875 0.8125 C7.33605469 0.96332031 8.48460937 1.11414062 9.66796875 1.26953125 C13.08032662 2.0176097 15.25074195 2.85719593 18 5 C18.8125 8.6875 18.8125 8.6875 19 12 C19.66 12 20.32 12 21 12 C21 13.32 21 14.64 21 16 C17.94736336 16.98120464 16.05263664 16.98120464 13 16 C13 14.02 13 12.04 13 10 C12.34 10 11.68 10 11 10 C11 9.34 11 8.68 11 8 C9.68 8 8.36 8 7 8 C7 7.34 7 6.68 7 6 C5.68 6 4.36 6 3 6 C3 5.34 3 4.68 3 4 C1.68 4 0.36 4 -1 4 C-0.67 2.68 -0.34 1.36 0 0 Z " fill="#F9FBF8" transform="translate(33,52)"/>
<path d="M0 0 C0.7115625 0.32355469 1.423125 0.64710937 2.15625 0.98046875 C1.49625 1.64046875 0.83625 2.30046875 0.15625 2.98046875 C-1.96875 2.60546875 -1.96875 2.60546875 -3.84375 1.98046875 C-3.84375 1.32046875 -3.84375 0.66046875 -3.84375 -0.01953125 C-8.29875 0.47546875 -8.29875 0.47546875 -12.84375 0.98046875 C-13.17375 3.29046875 -13.50375 5.60046875 -13.84375 7.98046875 C-15.16375 7.98046875 -16.48375 7.98046875 -17.84375 7.98046875 C-17.84375 9.30046875 -17.84375 10.62046875 -17.84375 11.98046875 C-18.50375 11.98046875 -19.16375 11.98046875 -19.84375 11.98046875 C-19.84375 12.64046875 -19.84375 13.30046875 -19.84375 13.98046875 C-20.50375 13.98046875 -21.16375 13.98046875 -21.84375 13.98046875 C-21.51375 15.63046875 -21.18375 17.28046875 -20.84375 18.98046875 C-21.50375 19.31046875 -22.16375 19.64046875 -22.84375 19.98046875 C-25.09266559 16.12143461 -25.0545059 13.50076691 -24.44921875 9.1640625 C-23.49437826 5.72047646 -21.62086258 4.12641938 -18.84375 1.98046875 C-18.1425 1.38234375 -17.44125 0.78421875 -16.71875 0.16796875 C-11.441617 -2.01171662 -5.35901267 -1.92129438 0 0 Z " fill="#F8FCF7" transform="translate(83.84375,32.01953125)"/>
<path d="M0 0 C6.22093023 4.35465116 6.22093023 4.35465116 7.25 9.5 C7.37375 11.10875 7.37375 11.10875 7.5 12.75 C4.2 12.75 0.9 12.75 -2.5 12.75 C-3.16 11.1 -3.82 9.45 -4.5 7.75 C-3.18 7.75 -1.86 7.75 -0.5 7.75 C-0.5 9.07 -0.5 10.39 -0.5 11.75 C1.48 11.75 3.46 11.75 5.5 11.75 C5.5 10.43 5.5 9.11 5.5 7.75 C4.18 7.75 2.86 7.75 1.5 7.75 C1.5 6.43 1.5 5.11 1.5 3.75 C-3.78 3.09 -9.06 2.43 -14.5 1.75 C-14.5 2.41 -14.5 3.07 -14.5 3.75 C-18.955 4.245 -18.955 4.245 -23.5 4.75 C-16.98643634 -2.22881821 -9.00507276 -3.21609741 0 0 Z " fill="#D8EFF9" transform="translate(46.5,32.25)"/>
<path d="M0 0 C0.66 1.32 1.32 2.64 2 4 C3.32 4 4.64 4 6 4 C6 4.66 6 5.32 6 6 C6.99 6.33 7.98 6.66 9 7 C11.91315773 10.77631558 12.13563505 13.33027894 12 18 C9.70890403 18.08075665 7.41700733 18.13907731 5.125 18.1875 C3.21074219 18.23970703 3.21074219 18.23970703 1.2578125 18.29296875 C0.18273437 18.19628906 -0.89234375 18.09960938 -2 18 C-2.66 17.01 -3.32 16.02 -4 15 C-4.99 15 -5.98 15 -7 15 C-7.33 14.67 -7.66 14.34 -8 14 C-9.32 14 -10.64 14 -12 14 C-12 15.98 -12 17.96 -12 20 C-12.66 19.67 -13.32 19.34 -14 19 C-14.21620175 16.3335118 -14.30894168 14.55995679 -13 12.1875 C-9.81103395 10.29405141 -6.60943101 10.4360264 -3 11 C-1 12.3125 -1 12.3125 0 14 C0 14.99 0 15.98 0 17 C3.3 17 6.6 17 10 17 C9.566875 15.741875 9.13375 14.48375 8.6875 13.1875 C8.32205078 12.12595703 8.32205078 12.12595703 7.94921875 11.04296875 C6.45806431 7.83361165 4.84041757 6.41526515 1.67578125 4.8515625 C-1.206222 3.93437023 -3.79934021 3.59281878 -6.8125 3.375 C-7.78832031 3.30023437 -8.76414062 3.22546875 -9.76953125 3.1484375 C-10.50558594 3.09945313 -11.24164063 3.05046875 -12 3 C-12 2.67 -12 2.34 -12 2 C-7.82262526 0.40861915 -4.46839215 -0.21278058 0 0 Z " fill="#174C93" transform="translate(44,28)"/>
<path d="M0 0 C0.33 0 0.66 0 1 0 C1.22417336 7.68431686 1.42552999 15.3689511 1.59840012 23.05458832 C1.67939 26.62403296 1.76799776 30.19293732 1.87451172 33.76171875 C1.9771675 37.21090084 2.05916338 40.6600317 2.12732697 44.11006165 C2.17101905 46.05563528 2.23566166 48.00070233 2.30072021 49.94567871 C2.42287691 57.16248777 2.00175709 61.91327864 -2 68 C-4.75 70.5 -4.75 70.5 -7 72 C-7.75 70.25 -7.75 70.25 -8 68 C-6.1875 65.75 -6.1875 65.75 -4 64 C-3.34 64 -2.68 64 -2 64 C-2 62.02 -2 60.04 -2 58 C-1.34 58 -0.68 58 0 58 C0 38.86 0 19.72 0 0 Z " fill="#1D417A" transform="translate(104,32)"/>
<path d="M0 0 C6.50799499 2.67976264 9.40518018 6.46262871 12.3828125 12.6953125 C13.65882898 16.84546319 12.73638135 19.32966225 11.1875 23.3125 C10.5275 23.3125 9.8675 23.3125 9.1875 23.3125 C9.1875 20.0125 9.1875 16.7125 9.1875 13.3125 C8.5275 13.3125 7.8675 13.3125 7.1875 13.3125 C7.1875 12.6525 7.1875 11.9925 7.1875 11.3125 C6.5275 11.3125 5.8675 11.3125 5.1875 11.3125 C5.1875 9.9925 5.1875 8.6725 5.1875 7.3125 C4.5275 7.3125 3.8675 7.3125 3.1875 7.3125 C3.1875 5.9925 3.1875 4.6725 3.1875 3.3125 C0.5475 3.3125 -2.0925 3.3125 -4.8125 3.3125 C-4.8125 2.3225 -4.8125 1.3325 -4.8125 0.3125 C-2.8125 -0.6875 -2.8125 -0.6875 0 0 Z " fill="#12418D" transform="translate(92.8125,8.6875)"/>
<path d="M0 0 C0.33 0.99 0.66 1.98 1 3 C0.34 3 -0.32 3 -1 3 C-0.67 3.99 -0.34 4.98 0 6 C-0.99 7.485 -0.99 7.485 -2 9 C-4.33837891 9.34057617 -4.33837891 9.34057617 -7.2265625 9.29296875 C-8.2578125 9.28330078 -9.2890625 9.27363281 -10.3515625 9.26367188 C-11.43179688 9.23853516 -12.51203125 9.21339844 -13.625 9.1875 C-14.71296875 9.17396484 -15.8009375 9.16042969 -16.921875 9.14648438 C-19.61507409 9.11104754 -22.30729374 9.06164331 -25 9 C-25 8.34 -25 7.68 -25 7 C-25.66 7 -26.32 7 -27 7 C-27.33 5.68 -27.66 4.36 -28 3 C-27.443125 3.2165625 -26.88625 3.433125 -26.3125 3.65625 C-18.5439376 6.49072547 -12.60432435 6.95581603 -4.76171875 3.94921875 C-2.79716761 2.89071337 -1.49585083 1.6431346 0 0 Z " fill="#184E9C" transform="translate(53,75)"/>
<path d="M0 0 C0 0.66 0 1.32 0 2 C-0.99 2 -1.98 2 -3 2 C-3.33 2.99 -3.66 3.98 -4 5 C-4.66 5 -5.32 5 -6 5 C-6 5.66 -6 6.32 -6 7 C-7.32 7 -8.64 7 -10 7 C-10 8.32 -10 9.64 -10 11 C-10.66 11 -11.32 11 -12 11 C-12 12.32 -12 13.64 -12 15 C-12.66 15 -13.32 15 -14 15 C-14 16.98 -14 18.96 -14 21 C-14.66 21 -15.32 21 -16 21 C-16 20.34 -16 19.68 -16 19 C-16.66 19 -17.32 19 -18 19 C-16.87576778 12.00477727 -14.36412542 7.68553124 -9 3 C-6.14416047 1.28534936 -3.39749914 0 0 0 Z " fill="#12438D" transform="translate(26,7)"/>
<path d="M0 0 C0.66 0 1.32 0 2 0 C2.38393977 10.98494354 2.38393977 10.98494354 0 15 C-0.99 15.66 -1.98 16.32 -3 17 C-3.33 17.99 -3.66 18.98 -4 20 C-7.62617803 22.7654186 -11.90961062 22.22469092 -16.25 22.125 C-16.99507813 22.11597656 -17.74015625 22.10695313 -18.5078125 22.09765625 C-20.33868059 22.07418358 -22.16938238 22.03831525 -24 22 C-23.67 21.34 -23.34 20.68 -23 20 C-20.78250147 19.6299274 -18.54897096 19.3540221 -16.3125 19.125 C-10.72158853 18.39698711 -7.11620901 17.88753073 -3 14 C-1.12655212 10.93073433 -0.65625211 8.31252667 -0.375 4.75 C-0.30023438 3.85796875 -0.22546875 2.9659375 -0.1484375 2.046875 C-0.09945312 1.37140625 -0.05046875 0.6959375 0 0 Z " fill="#134993" transform="translate(94,62)"/>
<path d="M0 0 C1.23556641 0.01740234 1.23556641 0.01740234 2.49609375 0.03515625 C3.32238281 0.04417969 4.14867188 0.05320312 5 0.0625 C5.63808594 0.07410156 6.27617188 0.08570312 6.93359375 0.09765625 C6.93359375 0.75765625 6.93359375 1.41765625 6.93359375 2.09765625 C8.91359375 2.09765625 10.89359375 2.09765625 12.93359375 2.09765625 C12.93359375 3.41765625 12.93359375 4.73765625 12.93359375 6.09765625 C7.65359375 6.09765625 2.37359375 6.09765625 -3.06640625 6.09765625 C-3.06640625 0.14491523 -3.06640625 0.14491523 0 0 Z " fill="#F9FBFB" transform="translate(73.06640625,31.90234375)"/>
<path d="M0 0 C2.97 0.495 2.97 0.495 6 1 C6 1.66 6 2.32 6 3 C6.66 3 7.32 3 8 3 C8 5.64 8 8.28 8 11 C8.66 11 9.32 11 10 11 C10.2475 12.051875 10.495 13.10375 10.75 14.1875 C11.82991219 17.87409677 13.20258356 20.27818941 16 23 C18.29896738 24.23105995 20.53836544 25.1005566 23 26 C23 26.33 23 26.66 23 27 C20.69 27 18.38 27 16 27 C16 26.34 16 25.68 16 25 C15.34 25 14.68 25 14 25 C14 24.34 14 23.68 14 23 C13.0409375 22.566875 13.0409375 22.566875 12.0625 22.125 C10 21 10 21 9 19 C8.34 19 7.68 19 7 19 C6.96132813 17.78763672 6.96132813 17.78763672 6.921875 16.55078125 C6.63716004 8.41321131 6.63716004 8.41321131 2 2 C1.34 1.34 0.68 0.68 0 0 Z " fill="#1E4E91" transform="translate(48,55)"/>
<path d="M0 0 C2.4375 1.5 2.4375 1.5 4 3 C3.67 3.99 3.34 4.98 3 6 C2.34 5.67 1.68 5.34 1 5 C1 4.34 1 3.68 1 3 C-1.35171131 3.59861742 -3.6859378 4.26924352 -6 5 C-6.33 5.66 -6.66 6.32 -7 7 C-6.401875 7.2475 -5.80375 7.495 -5.1875 7.75 C-2.71352479 9.16370012 -1.56629745 10.65055383 0 13 C-6.41459227 11.54763948 -6.41459227 11.54763948 -8.9375 9.1875 C-10.22438929 6.53802206 -10.4591843 4.90816723 -10 2 C-6.28986601 -0.47342266 -4.38939738 -0.38503486 0 0 Z " fill="#184B9C" transform="translate(79,39)"/>
<path d="M0 0 C2.475 0.495 2.475 0.495 5 1 C2.37191264 3.8908961 -0.11221348 5.78124327 -4.07550049 6.24050903 C-4.81274353 6.23606781 -5.54998657 6.23162659 -6.30957031 6.22705078 C-7.5704245 6.22682419 -7.5704245 6.22682419 -8.85675049 6.22659302 C-9.75480408 6.21627045 -10.65285767 6.20594788 -11.578125 6.1953125 C-12.5046991 6.1924826 -13.43127319 6.18965271 -14.38592529 6.18673706 C-17.34074909 6.17555611 -20.29526805 6.15045527 -23.25 6.125 C-25.25520395 6.11496751 -27.26041266 6.10584213 -29.265625 6.09765625 C-34.17720051 6.07562358 -39.08854859 6.04110795 -44 6 C-44 5.67 -44 5.34 -44 5 C-42.91581787 4.98018066 -41.83163574 4.96036133 -40.71459961 4.93994141 C-36.66831366 4.86351235 -32.62236993 4.7748542 -28.57641602 4.68261719 C-26.82974027 4.64448087 -25.08299009 4.60960198 -23.33618164 4.578125 C-20.81629954 4.53213913 -18.2969231 4.47420253 -15.77734375 4.4140625 C-14.6175425 4.39673569 -14.6175425 4.39673569 -13.43431091 4.37905884 C-8.62403525 4.24994017 -4.57372355 3.50956712 0 2 C0 1.34 0 0.68 0 0 Z " fill="#0C4499" transform="translate(92,102)"/>
<path d="M0 0 C1.32 0.33 2.64 0.66 4 1 C3.01 1 2.02 1 1 1 C2.65 1.33 4.3 1.66 6 2 C6 2.99 6 3.98 6 5 C4.68 5.33 3.36 5.66 2 6 C2 6.66 2 7.32 2 8 C2.66 8.33 3.32 8.66 4 9 C2.68 9.33 1.36 9.66 0 10 C0 9.34 0 8.68 0 8 C-1.32 8.33 -2.64 8.66 -4 9 C-4 6.69 -4 4.38 -4 2 C-2.68 2 -1.36 2 0 2 C0 1.34 0 0.68 0 0 Z " fill="#064AAE" transform="translate(36,40)"/>
<path d="M0 0 C0 1.98 0 3.96 0 6 C-6.27692308 8.21538462 -6.27692308 8.21538462 -9.9375 7.125 C-10.618125 6.75375 -11.29875 6.3825 -12 6 C-12 4 -12 4 -10 2 C-8.125 1.3671875 -8.125 1.3671875 -6 0.875 C-5.29875 0.70742187 -4.5975 0.53984375 -3.875 0.3671875 C-2 0 -2 0 0 0 Z " fill="#F6FBFD" transform="translate(82,74)"/>
<path d="M0 0 C2 1.3125 2 1.3125 3 3 C3 3.99 3 4.98 3 6 C6.3 6 9.6 6 13 6 C13 6.33 13 6.66 13 7 C11.04233719 7.08082094 9.08373272 7.13910778 7.125 7.1875 C5.48917969 7.23970703 5.48917969 7.23970703 3.8203125 7.29296875 C2.88960937 7.19628906 1.95890625 7.09960938 1 7 C0.34 6.01 -0.32 5.02 -1 4 C-1.99 4 -2.98 4 -4 4 C-4.33 3.67 -4.66 3.34 -5 3 C-6.32 3 -7.64 3 -9 3 C-9 4.98 -9 6.96 -9 9 C-9.66 8.67 -10.32 8.34 -11 8 C-11.21620175 5.3335118 -11.30894168 3.55995679 -10 1.1875 C-6.81103395 -0.70594859 -3.60943101 -0.5639736 0 0 Z " fill="#295895" transform="translate(41,39)"/>
<path d="M0 0 C3.3 0 6.6 0 10 0 C10.309375 0.94875 10.61875 1.8975 10.9375 2.875 C13.26242495 6.39761356 13.77503367 6.53837198 17.6875 7.375 C19.12117128 7.60822882 20.5581019 7.82467486 22 8 C18.77208445 10.1519437 17.71599191 10.20086443 14 10 C14 9.34 14 8.68 14 8 C12.68 8 11.36 8 10 8 C10 6.68 10 5.36 10 4 C9.34 4 8.68 4 8 4 C8 3.34 8 2.68 8 2 C6.02 2 4.04 2 2 2 C2 3.65 2 5.3 2 7 C1.34 6.34 0.68 5.68 0 5 C0 3.35 0 1.7 0 0 Z " fill="#CCE9F3" transform="translate(58,66)"/>
<path d="M0 0 C2.64 0 5.28 0 8 0 C8 0.66 8 1.32 8 2 C8.66 2.33 9.32 2.66 10 3 C10 3.66 10 4.32 10 5 C10.99 6.485 10.99 6.485 12 8 C10.02 8 8.04 8 6 8 C6 7.34 6 6.68 6 6 C5.38125 5.7525 4.7625 5.505 4.125 5.25 C1.64931313 3.79371361 1.04874998 2.62187494 0 0 Z " fill="#FCF9FD" transform="translate(76,54)"/>
<path d="M0 0 C1.32 0 2.64 0 4 0 C4 0.66 4 1.32 4 2 C5.65 2 7.3 2 9 2 C8.34 3.65 7.68 5.3 7 7 C2.6822542 6.49202991 -1.03302114 5.80317221 -5 4 C-5 3.34 -5 2.68 -5 2 C-4.01 2 -3.02 2 -2 2 C-2 2.66 -2 3.32 -2 4 C-1.34 3.34 -0.68 2.68 0 2 C0 1.34 0 0.68 0 0 Z " fill="#134E9F" transform="translate(38,46)"/>
<path d="M0 0 C3.40680413 0.30970947 5.56041967 0.68766661 8.375 2.6875 C10.43883512 5.62449613 10.31944345 7.48612204 10 11 C9.01 11.495 9.01 11.495 8 12 C8 9.36 8 6.72 8 4 C6.68 4 5.36 4 4 4 C4 5.98 4 7.96 4 10 C3.34 10 2.68 10 2 10 C2 7.36 2 4.72 2 2 C1.34 2 0.68 2 0 2 C0 1.34 0 0.68 0 0 Z " fill="#154D96" transform="translate(74,60)"/>
<path d="M0 0 C2.97 0 5.94 0 9 0 C9.45375 0.94875 9.9075 1.8975 10.375 2.875 C11.80238254 6.00313679 11.80238254 6.00313679 14 8 C12.02 8 10.04 8 8 8 C8 6.02 8 4.04 8 2 C6.02 2 4.04 2 2 2 C2.33 3.65 2.66 5.3 3 7 C2.01 7.495 2.01 7.495 1 8 C-0.35439668 5.29120665 -0.06501451 2.99066732 0 0 Z " fill="#D8F3FA" transform="translate(20,66)"/>
<path d="M0 0 C0 2.31 0 4.62 0 7 C1.32 7 2.64 7 4 7 C4.33 6.01 4.66 5.02 5 4 C5.99 3.67 6.98 3.34 8 3 C6.53251634 6.86882056 4.74192045 8.29173197 1 10 C-1.67907714 10.51692769 -4.27314602 10.76891068 -7 11 C-4 9 -4 9 -2 9 C-2 7.02 -2 5.04 -2 3 C-2.66 2.67 -3.32 2.34 -4 2 C-1 0 -1 0 0 0 Z " fill="#D2E9F5" transform="translate(84,71)"/>
<path d="M0 0 C1.98 0 3.96 0 6 0 C6.66 3.3 7.32 6.6 8 10 C7.34 10 6.68 10 6 10 C5.67 9.34 5.34 8.68 5 8 C3.35636866 7.27840576 1.68949614 6.60648579 0 6 C0 4.02 0 2.04 0 0 Z " fill="#F9F9F8" transform="translate(60,68)"/>
<path d="M0 0 C1.32 0.66 2.64 1.32 4 2 C4 2.66 4 3.32 4 4 C4.66 4 5.32 4 6 4 C6 4.66 6 5.32 6 6 C11.28 6 16.56 6 22 6 C16.67708574 8.66145713 12.44157357 8.62236189 6.8125 7.1875 C4.02224039 6.00939039 1.5406399 4.64394346 -1 3 C-0.67 2.01 -0.34 1.02 0 0 Z " fill="#CDEBF9" transform="translate(24,74)"/>
<path d="M0 0 C0.66 0 1.32 0 2 0 C2 1.98 2 3.96 2 6 C1.34 6 0.68 6 0 6 C0 7.32 0 8.64 0 10 C-1.32 10 -2.64 10 -4 10 C-4 11.32 -4 12.64 -4 14 C-4.66 14 -5.32 14 -6 14 C-5.67 11.03 -5.34 8.06 -5 5 C-4.01 5.33 -3.02 5.66 -2 6 C-2 5.34 -2 4.68 -2 4 C-1.34 4 -0.68 4 0 4 C0 2.68 0 1.36 0 0 Z " fill="#F7FAFD" transform="translate(90,60)"/>
<path d="M0 0 C1.32 0 2.64 0 4 0 C4 2.64 4 5.28 4 8 C0.7 8 -2.6 8 -6 8 C-6 7.34 -6 6.68 -6 6 C-4.02 6 -2.04 6 0 6 C0 4.02 0 2.04 0 0 Z " fill="#014AB6" transform="translate(78,64)"/>
<path d="M0 0 C0.33 1.32 0.66 2.64 1 4 C2.32 4.33 3.64 4.66 5 5 C4.01 5.495 4.01 5.495 3 6 C3 6.66 3 7.32 3 8 C2.34 8 1.68 8 1 8 C1.33 9.65 1.66 11.3 2 13 C1.01 13.495 1.01 13.495 0 14 C-1.8759207 10.85909063 -2.18257272 8.92116258 -1.6875 5.3125 C-1.58824219 4.52488281 -1.48898438 3.73726562 -1.38671875 2.92578125 C-1 1 -1 1 0 0 Z " fill="#DBEBF8" transform="translate(61,38)"/>
<path d="M0 0 C5.28 0 10.56 0 16 0 C16 0.33 16 0.66 16 1 C15.03900391 1.03867187 15.03900391 1.03867187 14.05859375 1.078125 C6.99197744 1.54150968 2.42236447 2.90883209 -2.9375 7.75 C-3.4634375 8.36875 -3.4634375 8.36875 -4 9 C-4 7.68 -4 6.36 -4 5 C-3.34 5 -2.68 5 -2 5 C-1.67 4.01 -1.34 3.02 -1 2 C-0.67 1.34 -0.34 0.68 0 0 Z " fill="#1E4F92" transform="translate(64,30)"/>
<path d="M0 0 C0.99 0 1.98 0 3 0 C3 1.32 3 2.64 3 4 C3.928125 4.2165625 3.928125 4.2165625 4.875 4.4375 C7 5 7 5 9 6 C9 6.66 9 7.32 9 8 C9.66 8.33 10.32 8.66 11 9 C8.76953125 9.74609375 8.76953125 9.74609375 6 10 C3.76171875 8.34765625 3.76171875 8.34765625 1.6875 6.0625 C0.64142578 4.93521484 0.64142578 4.93521484 -0.42578125 3.78515625 C-0.94527344 3.19605469 -1.46476563 2.60695313 -2 2 C-1.34 1.34 -0.68 0.68 0 0 Z " fill="#13468B" transform="translate(13,96)"/>
<path d="M0 0 C0 0.66 0 1.32 0 2 C-0.99 2 -1.98 2 -3 2 C-3.33 2.99 -3.66 3.98 -4 5 C-4.66 5 -5.32 5 -6 5 C-6 5.66 -6 6.32 -6 7 C-7.32 7 -8.64 7 -10 7 C-10 7.66 -10 8.32 -10 9 C-11.32 8.67 -12.64 8.34 -14 8 C-5.27044025 0 -5.27044025 0 0 0 Z " fill="#133875" transform="translate(26,7)"/>
<path d="M0 0 C0.92683594 -0.00515625 1.85367188 -0.0103125 2.80859375 -0.015625 C5.72304176 0.26548488 7.91140497 1.03752097 10.5625 2.25 C9.9025 2.91 9.2425 3.57 8.5625 4.25 C6.4375 3.875 6.4375 3.875 4.5625 3.25 C4.5625 2.59 4.5625 1.93 4.5625 1.25 C3.12458484 1.39168137 1.6871763 1.53851043 0.25 1.6875 C-0.55050781 1.76871094 -1.35101563 1.84992187 -2.17578125 1.93359375 C-4.59837179 2.20265693 -4.59837179 2.20265693 -7.4375 3.25 C-7.4375 3.91 -7.4375 4.57 -7.4375 5.25 C-9.4175 5.58 -11.3975 5.91 -13.4375 6.25 C-9.19480859 1.70425921 -6.27493951 -0.03481242 0 0 Z " fill="#CEECF8" transform="translate(75.4375,30.75)"/>
<path d="M0 0 C1.98 0.99 1.98 0.99 4 2 C4 3.32 4 4.64 4 6 C7.3 6 10.6 6 14 6 C12 8 12 8 8.6875 8.4375 C5 8 5 8 2.0625 5.6875 C0 3 0 3 0 0 Z " fill="#194C89" transform="translate(68,66)"/>
<path d="M0 0 C3.1744176 1.09462676 3.98914157 1.98177335 5.75 4.9375 C7 8 7 8 7 11 C3.7 11 0.4 11 -3 11 C-2.67 10.01 -2.34 9.02 -2 8 C-2 8.66 -2 9.32 -2 10 C-0.02 10 1.96 10 4 10 C4 8.02 4 6.04 4 4 C3.34 4 2.68 4 2 4 C2 3.34 2 2.68 2 2 C1.34 2 0.68 2 0 2 C0 1.34 0 0.68 0 0 Z " fill="#CDEDF9" transform="translate(86,34)"/>
<path d="M0 0 C0.78375 0.04125 1.5675 0.0825 2.375 0.125 C1.59125 0.7025 0.8075 1.28 0 1.875 C-2.56520963 4.07375111 -3.45873744 5.05816141 -4.625 8.125 C-4.86573194 10.94585728 -4.86573194 10.94585728 -4.75 13.875 C-4.73195313 14.85984375 -4.71390625 15.8446875 -4.6953125 16.859375 C-4.67210938 17.60703125 -4.64890625 18.3546875 -4.625 19.125 C-5.285 19.125 -5.945 19.125 -6.625 19.125 C-6.625 14.175 -6.625 9.225 -6.625 4.125 C-5.965 4.125 -5.305 4.125 -4.625 4.125 C-4.625 3.465 -4.625 2.805 -4.625 2.125 C-2.625 0.125 -2.625 0.125 0 0 Z " fill="#29558F" transform="translate(26.625,31.875)"/>
<path d="M0 0 C0.66 0.66 1.32 1.32 2 2 C-0.31537955 5.72114571 -2.28579473 8.61229661 -6 11 C-6.33 9.68 -6.66 8.36 -7 7 C-5.47005208 5.76302083 -3.94010417 4.52604167 -2.41015625 3.2890625 C-0.86733563 2.0333609 -0.86733563 2.0333609 0 0 Z " fill="#163A77" transform="translate(103,93)"/>
<path d="M0 0 C2.64 0 5.28 0 8 0 C8 0.66 8 1.32 8 2 C9.32 2 10.64 2 12 2 C12 2.66 12 3.32 12 4 C12.66 4 13.32 4 14 4 C14 6.64 14 9.28 14 12 C13.67 12 13.34 12 13 12 C12.896875 10.9275 12.79375 9.855 12.6875 8.75 C12.26280759 6.75377474 12.26280759 6.75377474 11 5 C7.47558599 3.14981594 3.83541659 2.03261216 0 1 C0 0.67 0 0.34 0 0 Z " fill="#C1DFF0" transform="translate(32,58)"/>
<path d="M0 0 C1.65 0.33 3.3 0.66 5 1 C2.87380903 3.33881007 1.00223508 4.94038762 -2 6 C-4.75 5.625 -4.75 5.625 -7 5 C-4.38058783 3.25372522 -2.96175123 2.61277612 0 2 C0 1.34 0 0.68 0 0 Z " fill="#1C499C" transform="translate(92,102)"/>
<path d="M0 0 C1.32 0 2.64 0 4 0 C4 0.66 4 1.32 4 2 C4.66 2 5.32 2 6 2 C5.34 3.32 4.68 4.64 4 6 C2.68 6 1.36 6 0 6 C-1.125 2.25 -1.125 2.25 0 0 Z " fill="#FCFBF7" transform="translate(68,50)"/>
<path d="M0 0 C4.72224516 1.53472968 9.35855331 3.23945126 14 5 C14 5.66 14 6.32 14 7 C12.68 7 11.36 7 10 7 C10 6.34 10 5.68 10 5 C8.02 5 6.04 5 4 5 C4 4.34 4 3.68 4 3 C2.68 2.67 1.36 2.34 0 2 C0 1.34 0 0.68 0 0 Z " fill="#154B93" transform="translate(24,55)"/>
<path d="M0 0 C4.95 0 9.9 0 15 0 C14.67 0.99 14.34 1.98 14 3 C11.8535247 2.88655624 9.70779408 2.75893655 7.5625 2.625 C6.36753906 2.55539063 5.17257813 2.48578125 3.94140625 2.4140625 C2.97074219 2.27742188 2.00007813 2.14078125 1 2 C0.67 1.34 0.34 0.68 0 0 Z " fill="#0846A1" transform="translate(69,28)"/>
<path d="M0 0 C2.97 0.495 2.97 0.495 6 1 C6 1.66 6 2.32 6 3 C6.66 3 7.32 3 8 3 C8 6.96 8 10.92 8 15 C7.67 15 7.34 15 7 15 C6.87044922 14.00419922 6.87044922 14.00419922 6.73828125 12.98828125 C5.78174263 6.97700641 4.81850592 3.80408362 0 0 Z " fill="#2C5A99" transform="translate(48,55)"/>
<path d="M0 0 C0.33 0.66 0.66 1.32 1 2 C1.99 1.67 2.98 1.34 4 1 C4.33 2.98 4.66 4.96 5 7 C3.35 7 1.7 7 0 7 C-1.125 2.25 -1.125 2.25 0 0 Z " fill="#0F4EAC" transform="translate(54,72)"/>
<path d="M0 0 C0.66 0 1.32 0 2 0 C2.66 3.63 3.32 7.26 4 11 C3.01 10.01 2.02 9.02 1 8 C0.34 8 -0.32 8 -1 8 C-0.67 5.36 -0.34 2.72 0 0 Z " fill="#10458F" transform="translate(56,66)"/>
<path d="M0 0 C1.65 0 3.3 0 5 0 C4.67 1.32 4.34 2.64 4 4 C3.34 4 2.68 4 2 4 C2 4.66 2 5.32 2 6 C0.68 6 -0.64 6 -2 6 C-2 5.34 -2 4.68 -2 4 C-1.34 4 -0.68 4 0 4 C0 2.68 0 1.36 0 0 Z " fill="#0247B6" transform="translate(58,60)"/>
<path d="M0 0 C0.66 0 1.32 0 2 0 C3.125 3.75 3.125 3.75 2 6 C0.02 6 -1.96 6 -4 6 C-4 5.34 -4 4.68 -4 4 C-3.34 4 -2.68 4 -2 4 C-2 3.34 -2 2.68 -2 2 C-1.34 2 -0.68 2 0 2 C0 1.34 0 0.68 0 0 Z " fill="#0548B7" transform="translate(24,58)"/>
<path d="M0 0 C0 1.32 0 2.64 0 4 C-1.32 4 -2.64 4 -4 4 C-4.33 3.67 -4.66 3.34 -5 3 C-5.99 3.33 -6.98 3.66 -8 4 C-7.67 3.01 -7.34 2.02 -7 1 C-4.53721199 -0.231394 -2.7204945 -0.07159196 0 0 Z " fill="#024CB3" transform="translate(80,42)"/>
<path d="M0 0 C3.3 0 6.6 0 10 0 C9 2 9 2 7.15234375 2.6328125 C6.42144531 2.79523437 5.69054688 2.95765625 4.9375 3.125 C3.83728516 3.37636719 3.83728516 3.37636719 2.71484375 3.6328125 C2.14894531 3.75398438 1.58304688 3.87515625 1 4 C0.67 2.68 0.34 1.36 0 0 Z " fill="#0848A2" transform="translate(28,28)"/>
<path d="M0 0 C1.65 0 3.3 0 5 0 C5 0.66 5 1.32 5 2 C6.32 2 7.64 2 9 2 C9 3.98 9 5.96 9 8 C7.87411986 7.04270084 6.7493285 6.08412105 5.625 5.125 C4.99851562 4.59132813 4.37203125 4.05765625 3.7265625 3.5078125 C2.44163349 2.38567993 1.20628025 1.20628025 0 0 Z " fill="#1C4991" transform="translate(85,54)"/>
<path d="M0 0 C5.41538462 -0.36923077 5.41538462 -0.36923077 8.375 1.5 C8.91125 1.995 9.4475 2.49 10 3 C9.67 3.99 9.34 4.98 9 6 C8.34 5.67 7.68 5.34 7 5 C7 4.34 7 3.68 7 3 C5.68 3 4.36 3 3 3 C3 2.34 3 1.68 3 1 C2.01 0.67 1.02 0.34 0 0 Z " fill="#1C518F" transform="translate(73,39)"/>
<path d="M0 0 C1.32 0 2.64 0 4 0 C4 1.32 4 2.64 4 4 C5.98 4 7.96 4 10 4 C10.33 3.34 10.66 2.68 11 2 C11.33 2.99 11.66 3.98 12 5 C8.7 5 5.4 5 2 5 C1.34 3.35 0.68 1.7 0 0 Z " fill="#DAF6FD" transform="translate(42,40)"/>
<path d="M0 0 C0 0.99 0 1.98 0 3 C-3.96 3 -7.92 3 -12 3 C-12 2.67 -12 2.34 -12 2 C-7.82262526 0.40861915 -4.46839215 -0.21278058 0 0 Z " fill="#10468B" transform="translate(44,28)"/>
<path d="M0 0 C0.33 0 0.66 0 1 0 C1.48828125 1.98567708 1.9765625 3.97135417 2.46484375 5.95703125 C2.91010705 7.65683202 3.44433985 9.33301954 4 11 C3.01 11.33 2.02 11.66 1 12 C1 10.35 1 8.7 1 7 C0.34 7 -0.32 7 -1 7 C-0.67 4.69 -0.34 2.38 0 0 Z " fill="#295AA3" transform="translate(19,66)"/>
<path d="M0 0 C1.9375 0.75 1.9375 0.75 4 2 C5.23843794 4.95319818 5.04187157 5.87438528 4 9 C3.34 9 2.68 9 2 9 C2 7.02 2 5.04 2 3 C1.34 3 0.68 3 0 3 C0 2.01 0 1.02 0 0 Z " fill="#0E4EA3" transform="translate(20,51)"/>
<path d="M0 0 C5.445 1.485 5.445 1.485 11 3 C11 3.33 11 3.66 11 4 C8.03 4 5.06 4 2 4 C2 3.34 2 2.68 2 2 C1.34 2 0.68 2 0 2 C0 1.34 0 0.68 0 0 Z " fill="#D1EAF5" transform="translate(72,50)"/>
<path d="M0 0 C2.02045442 0.60183749 4.02111039 1.27306096 6 2 C6.33 2.66 6.66 3.32 7 4 C6.01 4.99 5.02 5.98 4 7 C4 6.01 4 5.02 4 4 C2.68 3.67 1.36 3.34 0 3 C0 2.01 0 1.02 0 0 Z " fill="#E3F5F6" transform="translate(44,54)"/>
<path d="M0 0 C2.64 0 5.28 0 8 0 C8 0.66 8 1.32 8 2 C8.66 2.33 9.32 2.66 10 3 C8.68 3.33 7.36 3.66 6 4 C6 3.34 6 2.68 6 2 C4.02 2 2.04 2 0 2 C0 1.34 0 0.68 0 0 Z " fill="#F6FDEE" transform="translate(76,54)"/>
<path d="M0 0 C0.66 0 1.32 0 2 0 C2.33 2.31 2.66 4.62 3 7 C2.01 7 1.02 7 0 7 C-0.38133299 5.0085944 -0.71325582 3.00720923 -1 1 C-0.67 0.67 -0.34 0.34 0 0 Z " fill="#0E438C" transform="translate(9,88)"/>
<path d="M0 0 C2 1.375 2 1.375 4 4 C4.35791096 7.3580469 4.23115823 10.63536357 4 14 C3.67 14 3.34 14 3 14 C3 11.36 3 8.72 3 6 C2.34 6 1.68 6 1 6 C0.67 4.02 0.34 2.04 0 0 Z " fill="#D5F3FB" transform="translate(51,58)"/>
<path d="M0 0 C1.258125 -0.04125 2.51625 -0.0825 3.8125 -0.125 C4.52019531 -0.14820313 5.22789063 -0.17140625 5.95703125 -0.1953125 C8 0 8 0 11 2 C11 2.66 11 3.32 11 4 C7.37 3.01 3.74 2.02 0 1 C0 0.67 0 0.34 0 0 Z " fill="#D4EBF6" transform="translate(71,58)"/>
<path d="M0 0 C5.75 2.625 5.75 2.625 8 6 C4.62537285 5.45276317 2.91765 4.9451 0 3 C0 2.01 0 1.02 0 0 Z " fill="#D4EEF6" transform="translate(84,54)"/>
<path d="M0 0 C0.33 0.99 0.66 1.98 1 3 C3.01508358 3.73323796 3.01508358 3.73323796 5 4 C5 4.66 5 5.32 5 6 C5.66 6 6.32 6 7 6 C7 6.66 7 7.32 7 8 C4.08482708 6.92598892 2.22189824 6.22189824 0 4 C0 2.68 0 1.36 0 0 Z " fill="#D2E9F2" transform="translate(61,72)"/>
<path d="M0 0 C3.36720387 1.39332574 4.9859524 2.9789286 7 6 C4.64828869 5.40138258 2.3140622 4.73075648 0 4 C-0.33 3.34 -0.66 2.68 -1 2 C-0.67 1.34 -0.34 0.68 0 0 Z " fill="#1952A7" transform="translate(72,46)"/>
<path d="M0 0 C0 0.66 0 1.32 0 2 C-6.625 3.25 -6.625 3.25 -10 1 C-6.78548731 -0.60725635 -3.56387464 -0.05748185 0 0 Z " fill="#F0F0F0" transform="translate(415,25)"/>
<path d="M0 0 C4.95 1.98 4.95 1.98 10 4 C10 4.33 10 4.66 10 5 C6.63295715 5.2295711 4.58629732 5.33943529 1.625 3.625 C1.08875 3.08875 0.5525 2.5525 0 2 C0 1.34 0 0.68 0 0 Z " fill="#1F5194" transform="translate(64,55)"/>
<path d="M0 0 C0 0.66 0 1.32 0 2 C-0.99 2 -1.98 2 -3 2 C-3 2.66 -3 3.32 -3 4 C-5.31 4.33 -7.62 4.66 -10 5 C-7.31217681 1.88778367 -4.19734673 0 0 0 Z " fill="#0B316C" transform="translate(26,7)"/>
<path d="M0 0 C0.33 0.66 0.66 1.32 1 2 C3.64 2 6.28 2 9 2 C7.3125 3.625 7.3125 3.625 5 5 C2.25 4.1875 2.25 4.1875 0 3 C0 2.01 0 1.02 0 0 Z " fill="#0C4796" transform="translate(20,103)"/>
<path d="M0 0 C1.98 0.99 1.98 0.99 4 2 C4 3.32 4 4.64 4 6 C3.01 5.67 2.02 5.34 1 5 C0.67 3.35 0.34 1.7 0 0 Z " fill="#184A9E" transform="translate(68,66)"/>
<path d="M0 0 C3.63 0 7.26 0 11 0 C10.67 0.66 10.34 1.32 10 2 C8.01432292 1.93489583 6.02864583 1.86979167 4.04296875 1.8046875 C1.68640281 1.86745538 1.68640281 1.86745538 -1 4 C-0.67 2.68 -0.34 1.36 0 0 Z " fill="#CCE8F9" transform="translate(31,38)"/>
<path d="M0 0 C1.9375 0.8125 1.9375 0.8125 4 2 C4.33 2.99 4.66 3.98 5 5 C2.5625 4.625 2.5625 4.625 0 4 C-0.33 3.34 -0.66 2.68 -1 2 C-0.67 1.34 -0.34 0.68 0 0 Z " fill="#E0F3F8" transform="translate(24,74)"/>
<path d="M0 0 C1.32 0 2.64 0 4 0 C4 1.32 4 2.64 4 4 C2.68 4 1.36 4 0 4 C-0.33 3.01 -0.66 2.02 -1 1 C-0.67 0.67 -0.34 0.34 0 0 Z " fill="#FCFBEE" transform="translate(86,40)"/>
<path d="M0 0 C0.99 0.33 1.98 0.66 3 1 C3.33 3.97 3.66 6.94 4 10 C3.67 9.01 3.34 8.02 3 7 C2.34 7 1.68 7 1 7 C0.67 4.69 0.34 2.38 0 0 Z " fill="#194C9A" transform="translate(99,15)"/>
</svg>
