<?xml version="1.0" encoding="UTF-8"?>
<svg version="1.1" xmlns="http://www.w3.org/2000/svg" width="423" height="107">
<path d="M0 0 C1.20855652 -0.0159874 2.41711304 -0.03197479 3.66229248 -0.04844666 C5.60304657 -0.05649071 5.60304657 -0.05649071 7.58300781 -0.06469727 C8.94053233 -0.07367889 10.29805593 -0.08280098 11.65557861 -0.09205627 C14.49664706 -0.10850191 17.33759833 -0.11623794 20.17871094 -0.11914062 C23.7943884 -0.12451235 27.40894225 -0.16215891 31.02430344 -0.20788479 C33.82814409 -0.23783868 36.63172046 -0.24486814 39.43570709 -0.24586678 C41.40864495 -0.25204274 43.38146711 -0.28141752 45.35418701 -0.31138611 C53.17215464 -0.27247615 59.33071356 0.65779242 65.78613281 5.30639648 C71.51282192 11.27882072 74.01774094 17.2910167 74.07666016 25.62792969 C74.08941986 26.85973465 74.10217957 28.09153961 74.11532593 29.360672 C74.11755157 30.67951889 74.11977722 31.99836578 74.12207031 33.35717773 C74.12850693 34.73951858 74.13523592 36.12185809 74.14224243 37.50419617 C74.15418637 40.39654698 74.1579263 43.28877863 74.15673828 46.18115234 C74.15653538 49.86626946 74.18381957 53.55061292 74.2182827 57.23554707 C74.24064975 60.08995491 74.24457284 62.94417954 74.24351883 65.798666 C74.24699052 67.81092938 74.26859179 69.82313556 74.2906189 71.83528137 C74.24342186 81.35606646 72.73948233 89.35304697 65.78613281 96.30639648 C59.0383611 101.61496462 51.48789903 100.92548118 43.29003906 100.90795898 C41.77220699 100.91574459 40.25437923 100.92441632 38.73655701 100.93392944 C35.56340374 100.94880656 32.39069571 100.94830624 29.2175293 100.93774414 C25.16762464 100.92615498 21.11954955 100.96003178 17.06994724 101.00643349 C13.93757119 101.03601502 10.80563058 101.03763762 7.67313957 101.03141403 C6.1809012 101.032435 4.68863669 101.04280768 3.19653511 101.06303787 C-10.83408405 101.22995581 -10.83408405 101.22995581 -16.83364868 95.83253479 C-18.60639365 93.87237124 -19.98595374 91.99534455 -21.15136719 89.61889648 C-21.53164063 88.8725293 -21.91191406 88.12616211 -22.30371094 87.35717773 C-24.01235289 83.50723343 -24.35294624 80.50665699 -24.39086914 76.32543945 C-24.40370438 75.0934079 -24.41653961 73.86137634 -24.42976379 72.5920105 C-24.43793449 71.24420577 -24.44537759 69.89639647 -24.45214844 68.54858398 C-24.45622396 67.86751713 -24.46029949 67.18645027 -24.46449852 66.48474503 C-24.48534886 62.87581945 -24.49965177 59.26693172 -24.5090332 55.65795898 C-24.52006106 51.94926037 -24.55442079 48.2411678 -24.5942049 44.53268242 C-24.6204925 41.66542531 -24.62873597 38.79830952 -24.63231468 35.93094254 C-24.63715394 34.56512511 -24.64869117 33.19931285 -24.66735268 31.83361435 C-24.79018649 22.24381584 -24.19717141 14.77546952 -17.65136719 7.43139648 C-16.44480469 6.37952148 -16.44480469 6.37952148 -15.21386719 5.30639648 C-14.50230469 4.47108398 -14.50230469 4.47108398 -13.77636719 3.61889648 C-9.87493125 0.3416903 -4.89927834 0.04927261 0 0 Z " fill="#0249AB" transform="translate(29.2138671875,4.693603515625)"/>
<path d="M0 0 C1 1 1 1 1.09765625 3.50390625 C1.08605469 4.51324219 1.07445312 5.52257812 1.0625 6.5625 C1.05347656 7.57441406 1.04445312 8.58632813 1.03515625 9.62890625 C1.02355469 10.41136719 1.01195312 11.19382812 1 12 C-0.7015625 12.2165625 -0.7015625 12.2165625 -2.4375 12.4375 C-5.80777201 12.61171478 -5.80777201 12.61171478 -7 14 C-7.33 16.31 -7.66 18.62 -8 21 C-2.06 21 3.88 21 10 21 C10 18.69 10 16.38 10 14 C10.28520405 12.32442621 10.59955696 10.65182755 11 9 C14.50147041 7.8328432 17.32670036 7.86642547 21 8 C21.66 8.33 22.32 8.66 23 9 C23 12.96 23 16.92 23 21 C24.959375 20.979375 26.91875 20.95875 28.9375 20.9375 C30.95832876 20.91622812 32.98035801 20.92755947 35 21 C36.58894072 22.58894072 36.16998411 24.24801424 36.1875 26.4375 C36.20167969 27.24058594 36.21585937 28.04367188 36.23046875 28.87109375 C36 31 36 31 34 33 C30.10176743 33.21656848 26.74891097 33.03218914 23 32 C23.13850705 35.45866792 23.28704727 38.91683275 23.4375 42.375 C23.47681641 43.35984375 23.51613281 44.3446875 23.55664062 45.359375 C23.59853516 46.30039063 23.64042969 47.24140625 23.68359375 48.2109375 C23.73858032 49.51490479 23.73858032 49.51490479 23.79467773 50.84521484 C23.87401544 53.0483262 23.87401544 53.0483262 25 55 C27.35599235 55.46751788 27.35599235 55.46751788 30.0625 55.625 C31.691875 55.74875 33.32125 55.8725 35 56 C35 59.96 35 63.92 35 68 C20.37605959 68.80253332 20.37605959 68.80253332 14 64 C10.30515632 60.0667793 9.87565081 56.49678984 9.90234375 51.23828125 C9.90556641 50.12001953 9.90878906 49.00175781 9.91210938 47.84960938 C9.92467773 46.09874023 9.92467773 46.09874023 9.9375 44.3125 C9.94201172 43.13365234 9.94652344 41.95480469 9.95117188 40.74023438 C9.96296727 37.82677211 9.9794273 34.91341137 10 32 C8.700625 32.185625 7.40125 32.37125 6.0625 32.5625 C0.99717801 33.28611743 -2.50111566 32.61098715 -8 32 C-8 43.88 -8 55.76 -8 68 C-12.29 68 -16.58 68 -21 68 C-21.16746774 63.19470128 -21.32804214 58.38924097 -21.48217773 53.58349609 C-21.53561099 51.94801607 -21.5909414 50.31259689 -21.64819336 48.67724609 C-21.73006761 46.32923506 -21.80515983 43.9810911 -21.87890625 41.6328125 C-21.90594131 40.89942657 -21.93297638 40.16604065 -21.96083069 39.41043091 C-22.11387171 34.22774341 -22.11387171 34.22774341 -21 32 C-21.969375 32.020625 -22.93875 32.04125 -23.9375 32.0625 C-27 32 -27 32 -28 31 C-28.0979057 29.50261876 -28.12974864 28.00057108 -28.125 26.5 C-28.12757813 25.6853125 -28.13015625 24.870625 -28.1328125 24.03125 C-28 22 -28 22 -27 21 C-25.00041636 20.95919217 -22.99954746 20.95745644 -21 21 C-21.03480469 20.26394531 -21.06960937 19.52789062 -21.10546875 18.76953125 C-21.38418152 8.72259967 -21.38418152 8.72259967 -18 5 C-11.79756466 0.24919847 -7.57397315 -0.24832699 0 0 Z " fill="#0A0A0A" transform="translate(240,23)"/>
<path d="M0 0 C0.33 0 0.66 0 1 0 C1.44701413 7.56198897 1.53574091 12.76335625 -3 19 C-1.68 18.01 -0.36 17.02 1 16 C1 16.66 1 17.32 1 18 C1.66 18 2.32 18 3 18 C3 18.66 3 19.32 3 20 C4.98 20 6.96 20 9 20 C9 23.3 9 26.6 9 30 C8.34 30 7.68 30 7 30 C6.814375 30.8971875 6.814375 30.8971875 6.625 31.8125 C6 34 6 34 4 37 C2.515 37.495 2.515 37.495 1 38 C1 38.66 1 39.32 1 40 C-0.32 40 -1.64 40 -3 40 C-3 40.66 -3 41.32 -3 42 C-5.64 42 -8.28 42 -11 42 C-11 42.66 -11 43.32 -11 44 C-18.8144237 44.27063715 -26.62909334 44.50745183 -34.44573975 44.70202446 C-38.07605516 44.79343443 -41.70529181 44.89613943 -45.33447266 45.02539062 C-48.84191643 45.14987838 -52.34900709 45.24373744 -55.85787964 45.31708145 C-57.83695425 45.36624243 -59.81517886 45.44647685 -61.79321289 45.52731323 C-68.74909606 45.64398301 -73.20773004 45.27491981 -78.55126953 40.61087036 C-81.52144194 37.3082804 -83 34.43216668 -83 30 C-82.34 29.34 -81.68 28.68 -81 28 C-81.66 28 -82.32 28 -83 28 C-83 25.36 -83 22.72 -83 20 C-82.34 20 -81.68 20 -81 20 C-80.67 21.32 -80.34 22.64 -80 24 C-79.67 17.4 -79.34 10.8 -79 4 C-78.34 4 -77.68 4 -77 4 C-77 9.28 -77 14.56 -77 20 C-76.01 20 -75.02 20 -74 20 C-73.67 18.68 -73.34 17.36 -73 16 C-72.34 16 -71.68 16 -71 16 C-71 16.66 -71 17.32 -71 18 C-61.03044863 19.16311433 -51.0216678 19.54632625 -41 20 C-41 19.01 -41 18.02 -41 17 C-40.34 17 -39.68 17 -39 17 C-39.04125 16.071875 -39.0825 15.14375 -39.125 14.1875 C-39 11 -39 11 -37 8 C-36.34 8 -35.68 8 -35 8 C-33.95703125 9.64453125 -33.95703125 9.64453125 -32.8125 11.8125 C-30.17732398 16.14062341 -28.0212082 17.68296178 -23 19 C-16.67818451 19.72308347 -10.54042984 19.36520335 -5 16 C-0.48567412 11.25417023 -0.24753643 6.26267177 0 0 Z " fill="#024AAC" transform="translate(91,60)"/>
<path d="M0 0 C1.20855652 -0.0159874 2.41711304 -0.03197479 3.66229248 -0.04844666 C5.60304657 -0.05649071 5.60304657 -0.05649071 7.58300781 -0.06469727 C8.94053233 -0.07367889 10.29805593 -0.08280098 11.65557861 -0.09205627 C14.49664706 -0.10850191 17.33759833 -0.11623794 20.17871094 -0.11914062 C23.7943884 -0.12451235 27.40894225 -0.16215891 31.02430344 -0.20788479 C33.82814409 -0.23783868 36.63172046 -0.24486814 39.43570709 -0.24586678 C41.40864495 -0.25204274 43.38146711 -0.28141752 45.35418701 -0.31138611 C53.13564426 -0.27265786 59.36736064 0.63659222 65.78613281 5.30639648 C66.77613281 6.79139648 66.77613281 6.79139648 67.78613281 8.30639648 C66.30413379 7.85730587 64.82558045 7.39683084 63.34863281 6.93139648 C62.52492188 6.67616211 61.70121094 6.42092773 60.85253906 6.15795898 C58.78613281 5.30639648 58.78613281 5.30639648 57.78613281 3.30639648 C54.61404892 2.24903519 52.34931954 2.17329752 49.01708984 2.16113281 C47.23976974 2.15156303 47.23976974 2.15156303 45.42654419 2.14179993 C44.14528656 2.1406871 42.86402893 2.13957428 41.54394531 2.13842773 C40.22828583 2.13509933 38.91262634 2.13177094 37.55709839 2.12834167 C34.77129293 2.12235491 31.98551847 2.12050128 29.19970703 2.12109375 C25.63653535 2.12119529 22.07356332 2.10754985 18.51043892 2.09032154 C15.10493807 2.07650267 11.69947383 2.0771121 8.29394531 2.07592773 C7.01673615 2.06874222 5.73952698 2.0615567 4.4236145 2.05415344 C3.23243011 2.05723007 2.04124573 2.0603067 0.81396484 2.06347656 C-0.23177704 2.06205154 -1.27751892 2.06062653 -2.35494995 2.05915833 C-5.33096804 2.31652332 -7.51675531 3.05541339 -10.21386719 4.30639648 C-9.22386719 4.63639648 -8.23386719 4.96639648 -7.21386719 5.30639648 C-7.21386719 5.96639648 -7.21386719 6.62639648 -7.21386719 7.30639648 C-5.56386719 7.30639648 -3.91386719 7.30639648 -2.21386719 7.30639648 C-2.54386719 7.96639648 -2.87386719 8.62639648 -3.21386719 9.30639648 C-5.19386719 9.30639648 -7.17386719 9.30639648 -9.21386719 9.30639648 C-9.21386719 9.96639648 -9.21386719 10.62639648 -9.21386719 11.30639648 C-10.53386719 11.30639648 -11.85386719 11.30639648 -13.21386719 11.30639648 C-13.21386719 13.28639648 -13.21386719 15.26639648 -13.21386719 17.30639648 C-14.20386719 17.63639648 -15.19386719 17.96639648 -16.21386719 18.30639648 C-16.87386719 17.64639648 -17.53386719 16.98639648 -18.21386719 16.30639648 C-19.20386719 16.63639648 -20.19386719 16.96639648 -21.21386719 17.30639648 C-21.21386719 18.62639648 -21.21386719 19.94639648 -21.21386719 21.30639648 C-19.89386719 21.30639648 -18.57386719 21.30639648 -17.21386719 21.30639648 C-17.21386719 23.28639648 -17.21386719 25.26639648 -17.21386719 27.30639648 C-16.55386719 27.30639648 -15.89386719 27.30639648 -15.21386719 27.30639648 C-15.21386719 26.64639648 -15.21386719 25.98639648 -15.21386719 25.30639648 C-14.55386719 25.30639648 -13.89386719 25.30639648 -13.21386719 25.30639648 C-12.88386719 26.62639648 -12.55386719 27.94639648 -12.21386719 29.30639648 C-11.88386719 28.64639648 -11.55386719 27.98639648 -11.21386719 27.30639648 C-9.89386719 27.30639648 -8.57386719 27.30639648 -7.21386719 27.30639648 C-7.21386719 26.64639648 -7.21386719 25.98639648 -7.21386719 25.30639648 C-0.58886719 21.30639648 -0.58886719 21.30639648 2.78613281 21.30639648 C2.78613281 21.96639648 2.78613281 22.62639648 2.78613281 23.30639648 C4.02363281 23.18264648 4.02363281 23.18264648 5.28613281 23.05639648 C11.06398822 23.46910044 15.90575603 25.99486673 19.78613281 30.30639648 C21.67749272 33.39229948 21.78613281 34.47960379 21.78613281 38.30639648 C18.40890345 38.59152842 15.1511993 38.7730044 11.78613281 38.30639648 C10.16113281 35.80639648 10.16113281 35.80639648 8.78613281 33.30639648 C5.91223563 32.68841859 3.77340943 32.97447686 0.78613281 33.30639648 C-1.43282854 35.1311154 -1.43282854 35.1311154 -1.58886719 37.74389648 C-1.4763316 40.37840898 -1.4763316 40.37840898 0.41113281 41.81811523 C3.22994023 43.58450607 6.0198594 44.59037145 9.16113281 45.68139648 C14.71029179 47.74518482 19.99354369 49.72121823 22.78613281 55.30639648 C23.32023471 60.17460399 23.29000794 64.17267746 21.28613281 68.68139648 C16.83269412 73.35750711 12.40924044 75.51792208 5.91113281 75.68139648 C-7.39590602 75.12435765 -7.39590602 75.12435765 -10.21386719 72.30639648 C-10.87386719 73.62639648 -11.53386719 74.94639648 -12.21386719 76.30639648 C-13.20386719 75.97639648 -14.19386719 75.64639648 -15.21386719 75.30639648 C-15.21386719 70.02639648 -15.21386719 64.74639648 -15.21386719 59.30639648 C-15.87386719 59.30639648 -16.53386719 59.30639648 -17.21386719 59.30639648 C-17.21386719 65.90639648 -17.21386719 72.50639648 -17.21386719 79.30639648 C-18.20386719 79.80139648 -18.20386719 79.80139648 -19.21386719 80.30639648 C-19.21386719 78.65639648 -19.21386719 77.00639648 -19.21386719 75.30639648 C-19.87386719 75.30639648 -20.53386719 75.30639648 -21.21386719 75.30639648 C-21.21386719 77.94639648 -21.21386719 80.58639648 -21.21386719 83.30639648 C-20.55386719 83.30639648 -19.89386719 83.30639648 -19.21386719 83.30639648 C-18.71886719 82.31639648 -18.71886719 82.31639648 -18.21386719 81.30639648 C-18.54386719 83.28639648 -18.87386719 85.26639648 -19.21386719 87.30639648 C-20.69886719 87.80139648 -20.69886719 87.80139648 -22.21386719 88.30639648 C-23.8155718 84.05694815 -24.47235477 80.51840532 -24.50439453 75.98486328 C-24.51715424 74.75305832 -24.52991394 73.52125336 -24.5430603 72.25212097 C-24.54528595 70.93327408 -24.5475116 69.61442719 -24.54980469 68.25561523 C-24.55624131 66.87327439 -24.5629703 65.49093488 -24.56997681 64.1085968 C-24.58192074 61.21624599 -24.58566068 58.32401434 -24.58447266 55.43164062 C-24.58426975 51.7465235 -24.61155394 48.06218004 -24.64601707 44.3772459 C-24.66838412 41.52283805 -24.67230721 38.66861343 -24.6712532 35.81412697 C-24.6747249 33.80186359 -24.69632617 31.78965741 -24.71835327 29.7775116 C-24.67420987 20.87271855 -23.68532862 14.20120687 -17.65136719 7.43139648 C-16.44480469 6.37952148 -16.44480469 6.37952148 -15.21386719 5.30639648 C-14.50230469 4.47108398 -14.50230469 4.47108398 -13.77636719 3.61889648 C-9.87493125 0.3416903 -4.89927834 0.04927261 0 0 Z " fill="#0349AC" transform="translate(29.2138671875,4.693603515625)"/>
<path d="M0 0 C5.06195136 4.13113799 7.13109718 8.5918417 8 15 C6 17 6 17 3.72265625 17.23046875 C2.84480469 17.21628906 1.96695313 17.20210937 1.0625 17.1875 C0.18722656 17.18105469 -0.68804687 17.17460938 -1.58984375 17.16796875 C-4 17 -4 17 -7 16 C-8.03291676 14.01679982 -9.0337499 12.01652194 -10 10 C-12.22890995 8.88554502 -13.53055106 8.83519714 -16 8.8125 C-16.70125 8.79832031 -17.4025 8.78414062 -18.125 8.76953125 C-20.24524938 8.83487677 -20.24524938 8.83487677 -22 11 C-22.58342353 14.45769191 -22.58342353 14.45769191 -22 18 C-18.27833859 20.78071305 -14.0063241 22.21165008 -9.6875 23.8125 C-2.57182849 26.57029789 3.40498127 29.43184924 8 35.75 C9.82259439 41.67343177 9.97895052 47.46382032 7.5625 53.25 C4.69475737 58.31737319 -0.44874615 61.81144648 -5.92578125 63.64453125 C-14.58192081 65.12797513 -23.55852181 64.59583062 -31.00390625 59.67578125 C-34.82634156 56.63538907 -37.3715081 53.69388841 -39 49 C-39 46.69 -39 44.38 -39 42 C-34.38 42 -29.76 42 -25 42 C-24.566875 43.11375 -24.13375 44.2275 -23.6875 45.375 C-22.30088881 49.17512334 -22.30088881 49.17512334 -19 51 C-16.59149331 51.39126923 -16.59149331 51.39126923 -14 51.375 C-12.700625 51.41753906 -12.700625 51.41753906 -11.375 51.4609375 C-8.86782555 51.20486917 -8.86782555 51.20486917 -7.203125 49.1953125 C-5.74866189 46.90331807 -5.74866189 46.90331807 -5.75 43.5 C-6.60649148 40.03736819 -6.60649148 40.03736819 -8.66015625 38.8359375 C-11.07254724 37.75889905 -13.5040163 36.86646291 -16 36 C-24.67682508 32.78594045 -32.86704421 29.63932042 -37.5625 21.1875 C-38.32327633 15.64470105 -38.59384493 10.59656606 -35.578125 5.68359375 C-26.40669225 -5.33430002 -12.29882789 -7.18845285 0 0 Z " fill="#0B0B0B" transform="translate(152,28)"/>
<path d="M0 0 C3.64982664 2.77996624 5.70531037 5.61901329 7.27734375 9.8984375 C7.46484375 13.2734375 7.46484375 13.2734375 7.27734375 15.8984375 C3.1400076 17.27754955 -0.65659694 17.01321857 -4.97265625 16.7734375 C-7.81082353 15.35435386 -8.44257575 12.6913404 -9.72265625 9.8984375 C-12.91288219 8.30332453 -16.25174021 8.52301189 -19.72265625 8.8984375 C-21.93563725 9.77714664 -21.93563725 9.77714664 -22.72265625 11.8984375 C-23.17438197 15.34324525 -23.17438197 15.34324525 -21.72265625 18.8984375 C-18.3806052 21.0789966 -14.72892579 22.28550747 -10.97265625 23.5859375 C4.32196473 29.13957558 4.32196473 29.13957558 7.58984375 35.6484375 C10.12030265 41.19281696 9.93442707 45.55757819 8.27734375 51.4609375 C5.04842617 57.0106396 0.9058478 60.73582994 -4.97265625 63.3359375 C-15.06969279 64.85049298 -22.86887645 64.39247294 -31.50390625 58.73046875 C-35.1422188 55.97498204 -37.18580051 53.16748124 -38.72265625 48.8984375 C-38.91015625 45.0234375 -38.91015625 45.0234375 -38.72265625 41.8984375 C-34.43265625 41.8984375 -30.14265625 41.8984375 -25.72265625 41.8984375 C-24.74609375 43.94921875 -23.76953125 46 -22.79296875 48.05078125 C-21.85415855 50.06176209 -21.85415855 50.06176209 -19.72265625 50.8984375 C-18.08009834 51.01958671 -16.43213147 51.07384517 -14.78515625 51.0859375 C-13.90988281 51.10011719 -13.03460938 51.11429688 -12.1328125 51.12890625 C-9.4602129 51.06507099 -9.4602129 51.06507099 -6.72265625 48.8984375 C-6.35849578 46.46150439 -6.35849578 46.46150439 -6.53515625 43.7734375 C-6.56222656 42.86335938 -6.58929688 41.95328125 -6.6171875 41.015625 C-6.65199219 40.31695312 -6.68679688 39.61828125 -6.72265625 38.8984375 C-7.24472656 38.72828125 -7.76679688 38.558125 -8.3046875 38.3828125 C-9.88043908 37.86400112 -11.45309237 37.33573399 -13.0234375 36.80078125 C-14.82316072 36.19913716 -16.63360732 35.62867088 -18.453125 35.08984375 C-25.51459817 32.84889669 -30.89082417 29.6010613 -35.72265625 23.8984375 C-38.1515873 18.90089247 -38.63360369 14.15706157 -37.140625 8.81640625 C-34.67237498 2.92190963 -30.39061788 -0.33926754 -24.72265625 -3.1015625 C-16.1099074 -5.33600206 -7.57281118 -4.8424779 0 0 Z " fill="#0B0B0B" transform="translate(316.72265625,28.1015625)"/>
<path d="M0 0 C6.33650876 3.88060279 9.98001982 9.1453328 12.0390625 16.21875 C12.70411457 19.42001758 12.77163231 22.17791225 12.5 25.4375 C11.5 26.4375 11.5 26.4375 8.26538086 26.55102539 C6.83185874 26.55086631 5.39833088 26.54517407 3.96484375 26.53515625 C2.83496788 26.53303383 2.83496788 26.53303383 1.68226624 26.53086853 C-0.7326956 26.52525376 -3.14756601 26.51269883 -5.5625 26.5 C-7.19596221 26.4949869 -8.82942586 26.49042366 -10.46289062 26.48632812 C-14.47529585 26.47527954 -18.48763241 26.45800506 -22.5 26.4375 C-20.38673474 31.14592624 -20.38673474 31.14592624 -16.5 34.4375 C-14.12548762 34.82904854 -14.12548762 34.82904854 -11.5625 34.8125 C-10.70785156 34.84085938 -9.85320312 34.86921875 -8.97265625 34.8984375 C-6.33540139 34.65808719 -6.33540139 34.65808719 -4.60546875 32.4296875 C-2.5 30.4375 -2.5 30.4375 0.734375 30.046875 C1.89453125 30.09328125 3.0546875 30.1396875 4.25 30.1875 C5.42046875 30.22359375 6.5909375 30.2596875 7.796875 30.296875 C8.68890625 30.34328125 9.5809375 30.3896875 10.5 30.4375 C9.72190291 36.31418068 6.62335389 39.40169078 2.5 43.4375 C-3.59762254 47.83346043 -10.15525434 48.28384818 -17.5 47.4375 C-25.45014667 44.90118711 -30.95243811 40.28999883 -34.8125 32.9375 C-36.94733524 25.17446277 -37.14089752 17.40810648 -33.2734375 10.12890625 C-25.70533402 -0.57571071 -12.58956273 -5.72030617 0 0 Z M-20.5 12.4375 C-20.83 14.0875 -21.16 15.7375 -21.5 17.4375 C-14.9 17.4375 -8.3 17.4375 -1.5 17.4375 C-3.65698893 11.91036014 -3.65698893 11.91036014 -8.5 9.4375 C-13.2840717 8.82676744 -16.50130423 9.74070518 -20.5 12.4375 Z " fill="#0B0B0B" transform="translate(364.5,44.5625)"/>
<path d="M0 0 C6.41503682 3.63037454 10.31783225 9.05771145 12.625 16 C13.55254618 23.72236124 12.81290041 30.37029446 8.625 37 C3.95570388 42.52942962 -1.36841385 46.55724068 -8.671875 47.203125 C-16.43916307 47.35154452 -23.0833111 46.07307989 -28.98828125 40.62109375 C-34.47694345 34.20477034 -36.22548025 27.53770348 -35.8515625 19.18359375 C-34.7958316 12.13096517 -31.99265868 6.9153946 -26.375 2.5 C-18.34214255 -3.07117533 -8.99226784 -4.04039871 0 0 Z M-20.375 14 C-22.20294504 19.48383512 -22.3158289 25.69496921 -20.125 31.0625 C-17.36884225 34.11396036 -15.52247445 34.87792825 -11.4375 35.3125 C-7.91721975 34.95328773 -6.15702183 34.16379476 -3.375 32 C-0.45304533 27.36165238 -0.73211288 22.29616533 -1.375 17 C-2.67046356 13.84689058 -4.25168579 11.56165711 -7.375 10 C-13.19743396 9.52275132 -16.16033581 9.52990162 -20.375 14 Z " fill="#090909" transform="translate(199.375,45)"/>
<path d="M0 0 C2.89463671 1.6929777 4.9686051 3.1872102 6.5 6.25 C7.1875 9.5 7.1875 9.5 7.5 12.25 C4.2 12.25 0.9 12.25 -2.5 12.25 C-3.16 10.93 -3.82 9.61 -4.5 8.25 C-7.48594424 6.75702788 -10.20853624 7.13244772 -13.5 7.25 C-14.49 7.745 -14.49 7.745 -15.5 8.25 C-15.47873538 11.65614946 -15.47873538 11.65614946 -14.5 15.25 C-12.00588701 17.12686069 -12.00588701 17.12686069 -8.5 18.25 C4.41180654 23.11770982 4.41180654 23.11770982 8.5 29.25 C9.23176768 34.19368632 9.02245588 38.18573801 6.8125 42.6875 C2.86687274 47.05968155 -1.01774325 48.88874547 -6.796875 49.48828125 C-12.83997491 49.67111389 -17.66508781 49.10935341 -22.5 45.25 C-25.83515116 41.29001517 -27.5 38.4896517 -27.5 33.25 C-24.2 33.25 -20.9 33.25 -17.5 33.25 C-17.04625 34.219375 -16.5925 35.18875 -16.125 36.1875 C-14.84213779 39.32079582 -14.84213779 39.32079582 -12.5 40.25 C-10.79297265 40.31996014 -9.08331997 40.33440154 -7.375 40.3125 C-6.46492188 40.30347656 -5.55484375 40.29445312 -4.6171875 40.28515625 C-3.91851562 40.27355469 -3.21984375 40.26195312 -2.5 40.25 C-2.4071875 38.3628125 -2.4071875 38.3628125 -2.3125 36.4375 C-2.27769531 35.72980469 -2.24289063 35.02210937 -2.20703125 34.29296875 C-2.35019799 32.2093535 -2.35019799 32.2093535 -3.6171875 30.640625 C-6.18039323 28.7474689 -8.81030059 27.86863705 -11.8125 26.8125 C-23.35477941 22.54044118 -23.35477941 22.54044118 -25.5 18.25 C-25.97966313 12.92652557 -26.41862037 7.98124608 -23.875 3.1875 C-16.81427941 -2.57256153 -8.4192835 -3.93003455 0 0 Z " fill="#E0F1F7" transform="translate(82.5,30.75)"/>
<path d="M0 0 C3.58521845 2.48207431 5.81956692 4.58043911 7.4375 8.6875 C7.4375 10.0075 7.4375 11.3275 7.4375 12.6875 C4.06027064 12.97263194 0.80256648 13.15410791 -2.5625 12.6875 C-4.1875 10.1875 -4.1875 10.1875 -5.5625 7.6875 C-8.43639718 7.06952211 -10.57522338 7.35558038 -13.5625 7.6875 C-15.78146136 9.51221891 -15.78146136 9.51221891 -15.9375 12.125 C-15.82496441 14.7595125 -15.82496441 14.7595125 -13.9375 16.19921875 C-11.11869258 17.96560959 -8.32877341 18.97147497 -5.1875 20.0625 C0.36165898 22.12628834 5.64491087 24.10232175 8.4375 29.6875 C8.9716019 34.5557075 8.94137512 38.55378097 6.9375 43.0625 C2.42210476 47.803665 -2.05193577 49.89489273 -8.625 50.125 C-14.66141029 49.84725106 -18.89550981 48.1732956 -23.4375 44.125 C-26.64498603 40.44582484 -26.66712519 38.50025885 -26.5625 33.6875 C-23.5925 33.6875 -20.6225 33.6875 -17.5625 33.6875 C-17.10875 34.656875 -16.655 35.62625 -16.1875 36.625 C-14.90463779 39.75829582 -14.90463779 39.75829582 -12.5625 40.6875 C-7.3143379 41.16008042 -7.3143379 41.16008042 -2.5 39.5625 C-1.3388932 37.58967203 -1.3388932 37.58967203 -1.5625 34.6875 C-2.83459717 30.8712085 -4.05223192 30.49447344 -7.5625 28.6875 C-9.3607612 28.02264069 -11.1742822 27.39776556 -13 26.8125 C-17.83639984 25.10899074 -20.98584355 23.35827899 -24.5625 19.6875 C-26.21008591 14.74474228 -26.35120488 9.77524822 -24.5 4.875 C-17.99437867 -2.47005634 -8.99316604 -3.3132717 0 0 Z " fill="#F6FAF9" transform="translate(43.5625,30.3125)"/>
<path d="M0 0 C1.093125 0.00257812 2.18625 0.00515625 3.3125 0.0078125 C4.405625 0.00523438 5.49875 0.00265625 6.625 0 C9.3125 0.1328125 9.3125 0.1328125 10.3125 1.1328125 C10.41189626 3.18294096 10.44049553 5.23652642 10.44189453 7.2890625 C10.44504669 8.60712891 10.44819885 9.92519531 10.45144653 11.28320312 C10.44965675 12.73307325 10.4476058 14.18294308 10.4453125 15.6328125 C10.44598557 17.10872412 10.44695563 18.58463563 10.44821167 20.06054688 C10.44968848 23.15756279 10.44753464 26.25454992 10.44287109 29.3515625 C10.4371738 33.32989799 10.4404529 37.30816602 10.44644356 41.28649902 C10.45004963 44.33529167 10.44891037 47.38406821 10.44631577 50.43286133 C10.44564662 51.90014656 10.44647447 53.36743324 10.44879532 54.8347168 C10.45132257 56.88199843 10.4467906 58.92928516 10.44189453 60.9765625 C10.44109894 62.14380859 10.44030334 63.31105469 10.43948364 64.51367188 C10.3125 67.1328125 10.3125 67.1328125 9.3125 68.1328125 C7.31450428 68.23155066 5.31292842 68.26253049 3.3125 68.2578125 C2.219375 68.26039062 1.12625 68.26296875 0 68.265625 C-2.6875 68.1328125 -2.6875 68.1328125 -3.6875 67.1328125 C-3.78689626 65.08268404 -3.81549553 63.02909858 -3.81689453 60.9765625 C-3.82004669 59.65849609 -3.82319885 58.34042969 -3.82644653 56.98242188 C-3.82465675 55.53255175 -3.8226058 54.08268192 -3.8203125 52.6328125 C-3.82098557 51.15690088 -3.82195563 49.68098937 -3.82321167 48.20507812 C-3.82468848 45.10806221 -3.82253464 42.01107508 -3.81787109 38.9140625 C-3.8121738 34.93572701 -3.8154529 30.95745898 -3.82144356 26.97912598 C-3.82504963 23.93033333 -3.82391037 20.88155679 -3.82131577 17.83276367 C-3.82064662 16.36547844 -3.82147447 14.89819176 -3.82379532 13.4309082 C-3.82632257 11.38362657 -3.8217906 9.33633984 -3.81689453 7.2890625 C-3.81609894 6.12181641 -3.81530334 4.95457031 -3.81448364 3.75195312 C-3.64162304 0.18656291 -3.5722733 0.17653676 0 0 Z " fill="#010101" transform="translate(383.6875,22.8671875)"/>
<path d="M0 0 C3.96 0 7.92 0 12 0 C12 22.44 12 44.88 12 68 C8.04 68 4.08 68 0 68 C-1.82556117 66.17443883 -1.12772403 63.29461397 -1.12939453 60.84375 C-1.13254669 59.52568359 -1.13569885 58.20761719 -1.13894653 56.84960938 C-1.13715675 55.39973925 -1.1351058 53.94986942 -1.1328125 52.5 C-1.13348557 51.02408838 -1.13445563 49.54817687 -1.13571167 48.07226562 C-1.13718848 44.97524971 -1.13503464 41.87826258 -1.13037109 38.78125 C-1.1246738 34.80291451 -1.1279529 30.82464648 -1.13394356 26.84631348 C-1.13754963 23.79752083 -1.13641037 20.74874429 -1.13381577 17.69995117 C-1.13314662 16.23266594 -1.13397447 14.76537926 -1.13629532 13.2980957 C-1.13882257 11.25081407 -1.1342906 9.20352734 -1.12939453 7.15625 C-1.12859894 5.98900391 -1.12780334 4.82175781 -1.12698364 3.61914062 C-1 1 -1 1 0 0 Z " fill="#090909" transform="translate(401,23)"/>
<path d="M0 0 C5.94 0 11.88 0 18 0 C18 0.33 18 0.66 18 1 C17.154375 1.01417969 16.30875 1.02835938 15.4375 1.04296875 C8.156894 1.34908514 2.55441589 1.99166433 -3 7 C-4.50156874 10.00313748 -4.09281204 12.79067522 -4.0625 16.125 C-4.05347656 17.40632813 -4.04445313 18.68765625 -4.03515625 20.0078125 C-4.02355469 20.99523437 -4.01195313 21.98265625 -4 23 C-0.77872955 24.67228633 2.51577495 26.06560274 5.875 27.4375 C17.66626541 32.33253082 17.66626541 32.33253082 19 35 C19.23076923 40.53846154 19.23076923 40.53846154 18 43 C14.36217368 44.21260877 11.82264001 44.39544552 8 44 C5.0625 41.6875 5.0625 41.6875 3 39 C3 38.01 3 37.02 3 36 C-0.3 36 -3.6 36 -7 36 C-7.12375 36.66 -7.2475 37.32 -7.375 38 C-8.14520538 41.69698583 -9.06950663 45.34005942 -10 49 C-10.66 49 -11.32 49 -12 49 C-12 49.99 -12 50.98 -12 52 C-15.3 52 -18.6 52 -22 52 C-20.00443701 50.66962468 -17.98295147 49.37731723 -15.9375 48.125 C-12.99606331 45.99715218 -12.25368379 45.24791569 -11 42 C-10.6117686 39.58339047 -10.6117686 39.58339047 -10.625 37.0625 C-10.58246094 35.81146484 -10.58246094 35.81146484 -10.5390625 34.53515625 C-11.17186889 31.05472112 -12.51315645 29.49098829 -15 27 C-17.79333848 25.45399811 -17.79333848 25.45399811 -20.875 24.375 C-21.93203125 23.96378906 -22.9890625 23.55257812 -24.078125 23.12890625 C-25.04234375 22.75636719 -26.0065625 22.38382813 -27 22 C-32.61290323 19.38709677 -32.61290323 19.38709677 -35 17 C-35.35131571 14.25973747 -35.34419875 12.62386024 -34 10.1875 C-30.81103395 8.29405141 -27.60943101 8.4360264 -24 9 C-22 10.3125 -22 10.3125 -21 12 C-21 12.99 -21 13.98 -21 15 C-17.7 15 -14.4 15 -11 15 C-12.485 10.545 -12.485 10.545 -14 6 C-12.35 5.34 -10.7 4.68 -9 4 C-8.34 4.66 -7.68 5.32 -7 6 C-6.34 4.68 -5.68 3.36 -5 2 C-3.35 2 -1.7 2 0 2 C0 1.34 0 0.68 0 0 Z " fill="#084BA9" transform="translate(62,28)"/>
<path d="M0 0 C3.79886722 4.62470793 4.12333251 8.18922446 4.17700195 14.09448242 C4.19625481 15.94241646 4.19625481 15.94241646 4.21589661 17.8276825 C4.22406668 19.17027379 4.2315099 20.51286967 4.23828125 21.85546875 C4.24235678 22.53561853 4.2464323 23.21576832 4.25063133 23.9165287 C4.27145923 27.51897498 4.28577319 31.12138358 4.29516602 34.72387695 C4.30620388 38.4246997 4.34058183 42.1249168 4.38033772 45.82552624 C4.40662183 48.68849216 4.41486835 51.55131654 4.41844749 54.41439247 C4.42562179 56.4355441 4.45201096 58.4565985 4.47883606 60.47758484 C4.45644117 70.02871627 2.9764457 78.0235543 -4 85 C-10.66939397 90.18125138 -17.54408292 89.51634205 -25.68359375 89.390625 C-27.10847679 89.38315444 -28.53337018 89.37746536 -29.95826721 89.37347412 C-33.68867914 89.35828152 -37.41845722 89.31905658 -41.14862061 89.2746582 C-44.9629255 89.23356652 -48.77733391 89.21543363 -52.59179688 89.1953125 C-60.06148528 89.15255453 -67.53065346 89.08438264 -75 89 C-75 88.67 -75 88.34 -75 88 C-56.52 88 -38.04 88 -19 88 C-19 87.34 -19 86.68 -19 86 C-16.36 86 -13.72 86 -11 86 C-11 85.34 -11 84.68 -11 84 C-9.68 84 -8.36 84 -7 84 C-7 83.34 -7 82.68 -7 82 C-6.34 82 -5.68 82 -5 82 C-4.71125 81.4225 -4.4225 80.845 -4.125 80.25 C-3.08333333 78.16666667 -2.04166667 76.08333333 -1 74 C-0.34 74 0.32 74 1 74 C1 54.86 1 35.72 1 16 C0.34 16 -0.32 16 -1 16 C-1 15.34 -1 14.68 -1 14 C-0.34 14 0.32 14 1 14 C1 11.36 1 8.72 1 6 C0.01 5.505 0.01 5.505 -1 5 C-0.67 3.35 -0.34 1.7 0 0 Z " fill="#0C499D" transform="translate(99,16)"/>
<path d="M0 0 C1.20855652 -0.0159874 2.41711304 -0.03197479 3.66229248 -0.04844666 C5.60304657 -0.05649071 5.60304657 -0.05649071 7.58300781 -0.06469727 C8.94053233 -0.07367889 10.29805593 -0.08280098 11.65557861 -0.09205627 C14.49664706 -0.10850191 17.33759833 -0.11623794 20.17871094 -0.11914062 C23.7943884 -0.12451235 27.40894225 -0.16215891 31.02430344 -0.20788479 C33.82814409 -0.23783868 36.63172046 -0.24486814 39.43570709 -0.24586678 C41.40864495 -0.25204274 43.38146711 -0.28141752 45.35418701 -0.31138611 C53.13564426 -0.27265786 59.36736064 0.63659222 65.78613281 5.30639648 C66.77613281 6.79139648 66.77613281 6.79139648 67.78613281 8.30639648 C66.30413379 7.85730587 64.82558045 7.39683084 63.34863281 6.93139648 C62.52492188 6.67616211 61.70121094 6.42092773 60.85253906 6.15795898 C58.78613281 5.30639648 58.78613281 5.30639648 57.78613281 3.30639648 C54.61404892 2.24903519 52.34931954 2.17329752 49.01708984 2.16113281 C47.23976974 2.15156303 47.23976974 2.15156303 45.42654419 2.14179993 C44.14528656 2.1406871 42.86402893 2.13957428 41.54394531 2.13842773 C40.22828583 2.13509933 38.91262634 2.13177094 37.55709839 2.12834167 C34.77129293 2.12235491 31.98551847 2.12050128 29.19970703 2.12109375 C25.63653535 2.12119529 22.07356332 2.10754985 18.51043892 2.09032154 C15.10493807 2.07650267 11.69947383 2.0771121 8.29394531 2.07592773 C7.01673615 2.06874222 5.73952698 2.0615567 4.4236145 2.05415344 C3.23243011 2.05723007 2.04124573 2.0603067 0.81396484 2.06347656 C-0.23177704 2.06205154 -1.27751892 2.06062653 -2.35494995 2.05915833 C-5.33096804 2.31652332 -7.51675531 3.05541339 -10.21386719 4.30639648 C-9.22386719 4.63639648 -8.23386719 4.96639648 -7.21386719 5.30639648 C-7.21386719 5.96639648 -7.21386719 6.62639648 -7.21386719 7.30639648 C-5.56386719 7.30639648 -3.91386719 7.30639648 -2.21386719 7.30639648 C-2.54386719 7.96639648 -2.87386719 8.62639648 -3.21386719 9.30639648 C-5.19386719 9.30639648 -7.17386719 9.30639648 -9.21386719 9.30639648 C-9.21386719 9.96639648 -9.21386719 10.62639648 -9.21386719 11.30639648 C-10.53386719 11.30639648 -11.85386719 11.30639648 -13.21386719 11.30639648 C-13.21386719 13.28639648 -13.21386719 15.26639648 -13.21386719 17.30639648 C-14.20386719 17.63639648 -15.19386719 17.96639648 -16.21386719 18.30639648 C-16.87386719 17.64639648 -17.53386719 16.98639648 -18.21386719 16.30639648 C-20.32207515 16.62491419 -20.32207515 16.62491419 -22.21386719 17.30639648 C-22.23708318 25.02579292 -22.25482938 32.74518571 -22.26567936 40.46460915 C-22.27088797 44.04941673 -22.27794876 47.63420035 -22.28930664 51.21899414 C-22.30020756 54.68140268 -22.30615925 58.14378823 -22.30874443 61.60621262 C-22.31147908 63.56370553 -22.31927963 65.52118926 -22.3271637 67.47866821 C-22.32723923 68.67946014 -22.32731476 69.88025208 -22.32739258 71.11743164 C-22.32961319 72.17000153 -22.3318338 73.22257141 -22.3341217 74.30703735 C-22.21087434 77.38104341 -21.78360551 80.28586446 -21.21386719 83.30639648 C-20.55386719 83.30639648 -19.89386719 83.30639648 -19.21386719 83.30639648 C-18.71886719 82.31639648 -18.71886719 82.31639648 -18.21386719 81.30639648 C-18.54386719 83.28639648 -18.87386719 85.26639648 -19.21386719 87.30639648 C-20.69886719 87.80139648 -20.69886719 87.80139648 -22.21386719 88.30639648 C-23.8155718 84.05694815 -24.47235477 80.51840532 -24.50439453 75.98486328 C-24.51715424 74.75305832 -24.52991394 73.52125336 -24.5430603 72.25212097 C-24.54528595 70.93327408 -24.5475116 69.61442719 -24.54980469 68.25561523 C-24.55624131 66.87327439 -24.5629703 65.49093488 -24.56997681 64.1085968 C-24.58192074 61.21624599 -24.58566068 58.32401434 -24.58447266 55.43164062 C-24.58426975 51.7465235 -24.61155394 48.06218004 -24.64601707 44.3772459 C-24.66838412 41.52283805 -24.67230721 38.66861343 -24.6712532 35.81412697 C-24.6747249 33.80186359 -24.69632617 31.78965741 -24.71835327 29.7775116 C-24.67420987 20.87271855 -23.68532862 14.20120687 -17.65136719 7.43139648 C-16.44480469 6.37952148 -16.44480469 6.37952148 -15.21386719 5.30639648 C-14.50230469 4.47108398 -14.50230469 4.47108398 -13.77636719 3.61889648 C-9.87493125 0.3416903 -4.89927834 0.04927261 0 0 Z " fill="#165AB4" transform="translate(29.2138671875,4.693603515625)"/>
<path d="M0 0 C1.093125 0.00257812 2.18625 0.00515625 3.3125 0.0078125 C4.405625 0.00523438 5.49875 0.00265625 6.625 0 C9.3125 0.1328125 9.3125 0.1328125 10.3125 1.1328125 C10.41700769 3.08561434 10.45105374 5.04221795 10.45776367 6.99780273 C10.46733345 8.87996742 10.46733345 8.87996742 10.47709656 10.80015564 C10.47862512 12.18057212 10.47973914 13.56098912 10.48046875 14.94140625 C10.48367967 16.34766169 10.48704362 17.75391679 10.49055481 19.16017151 C10.49655232 22.11175308 10.49839408 25.06330534 10.49780273 28.01489258 C10.49770109 31.80261296 10.51135285 35.59014597 10.52857494 39.37782192 C10.53967742 42.28340015 10.54172248 45.18893283 10.54119301 48.09453011 C10.5423758 49.49121814 10.54681421 50.88790726 10.55452538 52.28457451 C10.56428925 54.23583451 10.56019234 56.18714914 10.55541992 58.13842773 C10.55684494 59.25015854 10.55826996 60.36188934 10.55973816 61.50730896 C10.3125 64.1328125 10.3125 64.1328125 8.3125 66.1328125 C8.3125 45.0128125 8.3125 23.8928125 8.3125 2.1328125 C5.0125 2.1328125 1.7125 2.1328125 -1.6875 2.1328125 C-1.6875 23.5828125 -1.6875 45.0328125 -1.6875 67.1328125 C-2.3475 67.1328125 -3.0075 67.1328125 -3.6875 67.1328125 C-3.71062635 58.5447553 -3.72841658 49.95671101 -3.73931217 41.36863041 C-3.74454036 37.3812405 -3.75163684 33.39387183 -3.76293945 29.40649414 C-3.77377061 25.56156136 -3.77977732 21.71664905 -3.78237724 17.87170219 C-3.78423108 16.40162267 -3.78785091 14.93154432 -3.79323006 13.46147346 C-3.80044355 11.40926783 -3.80149081 9.35714783 -3.80102539 7.30493164 C-3.803246 6.13466934 -3.80546661 4.96440704 -3.80775452 3.75868225 C-3.64421523 0.18764907 -3.57632063 0.17673678 0 0 Z " fill="#222222" transform="translate(383.6875,22.8671875)"/>
<path d="M0 0 C4.42611734 0.70920413 8.47238888 2.17822043 12.625 3.8125 C13.29273437 4.06064453 13.96046875 4.30878906 14.6484375 4.56445312 C18.46502389 6.06437158 21.07998842 7.28361394 23 11 C22.875 14.125 22.875 14.125 22 17 C18.32610037 19.44926642 15.26791164 19.830333 11 19 C8 16.6875 8 16.6875 6 14 C6 13.01 6 12.02 6 11 C3.03 11 0.06 11 -3 11 C-2.67 12.258125 -2.34 13.51625 -2 14.8125 C-1.32396773 17.38987302 -1 19.30212925 -1 22 C-3.24606427 20.22555028 -3.95081002 19.41647515 -4.29296875 16.51953125 C-4.25816406 15.62621094 -4.22335937 14.73289062 -4.1875 13.8125 C-4.16042969 12.91144531 -4.13335937 12.01039062 -4.10546875 11.08203125 C-4.07066406 10.39496094 -4.03585937 9.70789062 -4 9 C-1.36 9 1.28 9 4 9 C4 7.68 4 6.36 4 5 C2.35 5 0.7 5 -1 5 C-0.67 3.35 -0.34 1.7 0 0 Z " fill="#044AB5" transform="translate(20,53)"/>
<path d="M0 0 C3 1 3 1 5 4 C5.66 4.33 6.32 4.66 7 5 C5.6875 7.9375 5.6875 7.9375 4 11 C3.01 11.33 2.02 11.66 1 12 C1.11509661 13.41750563 1.24253658 14.83401169 1.375 16.25 C1.44460937 17.03890625 1.51421875 17.8278125 1.5859375 18.640625 C2.01507113 21.085877 2.78600638 22.84836903 4 25 C3.34 25 2.68 25 2 25 C1.34 24.2575 0.68 23.515 0 22.75 C-3.57146561 18.99837143 -8.24437775 17.75767798 -13 16 C-18.69491525 13.45762712 -18.69491525 13.45762712 -21 10 C-21.3125 7.4375 -21.3125 7.4375 -21 5 C-17.2794164 2.51961093 -15.40203429 2.53662797 -11 3 C-8.5625 4.875 -8.5625 4.875 -7 7 C-7 7.66 -7 8.32 -7 9 C-3.7 9 -0.4 9 3 9 C1.515 4.545 1.515 4.545 0 0 Z " fill="#0A4BA4" transform="translate(87,34)"/>
<path d="M0 0 C5.94 0 11.88 0 18 0 C18 0.33 18 0.66 18 1 C17.154375 1.01417969 16.30875 1.02835938 15.4375 1.04296875 C8.156894 1.34908514 2.55441589 1.99166433 -3 7 C-4.35119149 9.70238298 -4.13237128 11.86014446 -4.125 14.875 C-4.12757812 15.92429687 -4.13015625 16.97359375 -4.1328125 18.0546875 C-4.01998664 20.55676685 -3.72508762 22.61756923 -3 25 C-5.5 23.9375 -5.5 23.9375 -8 22 C-8.3125 18.3125 -8.3125 18.3125 -8 15 C-8.99 15.495 -8.99 15.495 -10 16 C-11.99960012 16.039992 -14.00047242 16.04346799 -16 16 C-16 16.66 -16 17.32 -16 18 C-17.65 18 -19.3 18 -21 18 C-20.505 16.515 -20.505 16.515 -20 15 C-17.03 15 -14.06 15 -11 15 C-11.99 12.03 -12.98 9.06 -14 6 C-12.35 5.34 -10.7 4.68 -9 4 C-8.34 4.66 -7.68 5.32 -7 6 C-6.34 4.68 -5.68 3.36 -5 2 C-3.35 2 -1.7 2 0 2 C0 1.34 0 0.68 0 0 Z " fill="#0D4794" transform="translate(62,28)"/>
<path d="M0 0 C0.33 1.32 0.66 2.64 1 4 C1.66 4 2.32 4 3 4 C3 4.66 3 5.32 3 6 C4.32 6 5.64 6 7 6 C7 6.66 7 7.32 7 8 C7.84304687 7.91621094 8.68609375 7.83242188 9.5546875 7.74609375 C10.65039062 7.64425781 11.74609375 7.54242188 12.875 7.4375 C14.51082031 7.28087891 14.51082031 7.28087891 16.1796875 7.12109375 C19 7 19 7 21 8 C21.6328125 9.84765625 21.6328125 9.84765625 22.125 12.0625 C22.29257812 12.79597656 22.46015625 13.52945313 22.6328125 14.28515625 C22.75398438 14.85105469 22.87515625 15.41695312 23 16 C23.66 16 24.32 16 25 16 C25 16.66 25 17.32 25 18 C25.66 18 26.32 18 27 18 C27.22245393 19.60226955 27.42746669 21.20696767 27.625 22.8125 C27.79902344 24.15248047 27.79902344 24.15248047 27.9765625 25.51953125 C28 28 28 28 26 31 C25.60986284 32.9896995 25.26797351 34.99019869 25 37 C24.34 37 23.68 37 23 37 C23 37.99 23 38.98 23 40 C19.7 40 16.4 40 13 40 C14.99556299 38.66962468 17.01704853 37.37731723 19.0625 36.125 C22.00393669 33.99715218 22.74631621 33.24791569 24 30 C24.3882314 27.58339047 24.3882314 27.58339047 24.375 25.0625 C24.41753906 23.81146484 24.41753906 23.81146484 24.4609375 22.53515625 C23.82813111 19.05472112 22.48684355 17.49098829 20 15 C17.20666152 13.45399811 17.20666152 13.45399811 14.125 12.375 C13.06796875 11.96378906 12.0109375 11.55257812 10.921875 11.12890625 C9.95765625 10.75636719 8.9934375 10.38382813 8 10 C2.38709677 7.38709677 2.38709677 7.38709677 0 5 C-0.125 2.375 -0.125 2.375 0 0 Z " fill="#0E4C99" transform="translate(27,40)"/>
<path d="M0 0 C1.9453125 0.2421875 1.9453125 0.2421875 4.125 0.875 C4.84945312 1.07867187 5.57390625 1.28234375 6.3203125 1.4921875 C6.87460938 1.65976562 7.42890625 1.82734375 8 2 C8 2.66 8 3.32 8 4 C5.36 4 2.72 4 0 4 C-0.06058594 4.67546875 -0.12117188 5.3509375 -0.18359375 6.046875 C-0.26738281 6.93890625 -0.35117188 7.8309375 -0.4375 8.75 C-0.51871094 9.63171875 -0.59992188 10.5134375 -0.68359375 11.421875 C-0.96238465 13.69350452 -1.38790577 15.79851823 -2 18 C-1.01 17.67 -0.02 17.34 1 17 C3.3406065 17.27769908 5.67624308 17.60539977 8 18 C8 18.66 8 19.32 8 20 C4.04 20 0.08 20 -4 20 C-4 19.34 -4 18.68 -4 18 C-4.66 18 -5.32 18 -6 18 C-6 17.34 -6 16.68 -6 16 C-6.66 16 -7.32 16 -8 16 C-8.05437607 14.41705218 -8.09296271 12.83355744 -8.125 11.25 C-8.14820313 10.36828125 -8.17140625 9.4865625 -8.1953125 8.578125 C-7.99139502 5.8864142 -7.36551721 4.30095026 -6 2 C-4.68 2 -3.36 2 -2 2 C-1.34 1.34 -0.68 0.68 0 0 Z " fill="#FAFBF8" transform="translate(66,32)"/>
<path d="M0 0 C0.99 0 1.98 0 3 0 C3 0.66 3 1.32 3 2 C4.65 2 6.3 2 8 2 C8.05437607 3.58294782 8.09296271 5.16644256 8.125 6.75 C8.14820312 7.63171875 8.17140625 8.5134375 8.1953125 9.421875 C7.99139502 12.1135858 7.36551721 13.69904974 6 16 C4.35 16 2.7 16 1 16 C1 15.34 1 14.68 1 14 C0.34 14 -0.32 14 -1 14 C-1.02694851 12.04174127 -1.04637218 10.08337774 -1.0625 8.125 C-1.07410156 7.03445312 -1.08570312 5.94390625 -1.09765625 4.8203125 C-1 2 -1 2 0 0 Z " fill="#FAFBF7" transform="translate(83,58)"/>
<path d="M0 0 C3.79514548 0.53253374 7.23257839 1.72542084 10.8125 3.0625 C11.78832031 3.42472656 12.76414062 3.78695312 13.76953125 4.16015625 C14.50558594 4.43730469 15.24164063 4.71445312 16 5 C16 5.33 16 5.66 16 6 C12.37 6 8.74 6 5 6 C5 6.66 5 7.32 5 8 C5.66 8 6.32 8 7 8 C7 8.66 7 9.32 7 10 C7.9075 9.938125 8.815 9.87625 9.75 9.8125 C13.28982642 10.01672076 14.44931155 10.64551835 17 13 C16.67 13.99 16.34 14.98 16 16 C15.29101562 15.54625 14.58203125 15.0925 13.8515625 14.625 C10.21644059 12.55347848 6.48497536 11.36492341 2.5234375 10.0625 C0.02742476 9.01154727 -1.26888137 8.04481127 -3 6 C-2.34 6 -1.68 6 -1 6 C-1.0309375 4.7934375 -1.0309375 4.7934375 -1.0625 3.5625 C-1 1 -1 1 0 0 Z " fill="#F6FAF7" transform="translate(25,46)"/>
<path d="M0 0 C4.17576168 0.68416434 7.88080407 2.01365009 11.8125 3.5625 C13.55466797 4.24505859 13.55466797 4.24505859 15.33203125 4.94140625 C16.21246094 5.29074219 17.09289062 5.64007813 18 6 C18 6.33 18 6.66 18 7 C15.36 7 12.72 7 10 7 C10 7.66 10 8.32 10 9 C8.68 9 7.36 9 6 9 C6 9.66 6 10.32 6 11 C3.03 11 0.06 11 -3 11 C-2.67 12.258125 -2.34 13.51625 -2 14.8125 C-1.32396773 17.38987302 -1 19.30212925 -1 22 C-3.24606427 20.22555028 -3.95081002 19.41647515 -4.29296875 16.51953125 C-4.25816406 15.62621094 -4.22335937 14.73289062 -4.1875 13.8125 C-4.16042969 12.91144531 -4.13335937 12.01039062 -4.10546875 11.08203125 C-4.07066406 10.39496094 -4.03585937 9.70789062 -4 9 C-1.36 9 1.28 9 4 9 C4 7.68 4 6.36 4 5 C2.35 5 0.7 5 -1 5 C-0.67 3.35 -0.34 1.7 0 0 Z " fill="#145198" transform="translate(20,53)"/>
<path d="M0 0 C1.64453125 0.81640625 1.64453125 0.81640625 3.89453125 2.31640625 C3.56453125 2.97640625 3.23453125 3.63640625 2.89453125 4.31640625 C1.94578125 4.11015625 0.99703125 3.90390625 0.01953125 3.69140625 C-1.52734375 3.50578125 -1.52734375 3.50578125 -3.10546875 3.31640625 C-3.76546875 3.97640625 -4.42546875 4.63640625 -5.10546875 5.31640625 C-5.76546875 4.65640625 -6.42546875 3.99640625 -7.10546875 3.31640625 C-7.10546875 3.97640625 -7.10546875 4.63640625 -7.10546875 5.31640625 C-5.78546875 5.64640625 -4.46546875 5.97640625 -3.10546875 6.31640625 C-3.43546875 6.97640625 -3.76546875 7.63640625 -4.10546875 8.31640625 C-6.12369792 8.28385417 -8.14192708 8.25130208 -10.16015625 8.21875 C-12.18732279 8.18991383 -12.18732279 8.18991383 -14.10546875 9.31640625 C-14.10546875 8.32640625 -14.10546875 7.33640625 -14.10546875 6.31640625 C-13.44546875 6.31640625 -12.78546875 6.31640625 -12.10546875 6.31640625 C-12.10546875 4.99640625 -12.10546875 3.67640625 -12.10546875 2.31640625 C-11.44546875 2.31640625 -10.78546875 2.31640625 -10.10546875 2.31640625 C-10.10546875 1.65640625 -10.10546875 0.99640625 -10.10546875 0.31640625 C-11.09546875 0.31640625 -12.08546875 0.31640625 -13.10546875 0.31640625 C-13.10546875 0.97640625 -13.10546875 1.63640625 -13.10546875 2.31640625 C-14.09546875 2.31640625 -15.08546875 2.31640625 -16.10546875 2.31640625 C-16.10546875 3.63640625 -16.10546875 4.95640625 -16.10546875 6.31640625 C-18.08546875 6.31640625 -20.06546875 6.31640625 -22.10546875 6.31640625 C-20.94204735 2.82614205 -19.59556386 1.82864742 -16.40234375 0.11328125 C-11.2707578 -1.6670649 -5.16920505 -1.67831333 0 0 Z " fill="#E6F4F8" transform="translate(42.10546875,29.68359375)"/>
<path d="M0 0 C0 0.66 0 1.32 0 2 C1.98 2 3.96 2 6 2 C6 2.33 6 2.66 6 3 C5.03900391 3.03867187 5.03900391 3.03867187 4.05859375 3.078125 C-2.0406184 3.47807334 -6.0301147 4.37612531 -11 8 C-13.6288739 12.17114659 -13.44257132 16.21682536 -13 21 C-12.13346586 23.93080674 -12.13346586 23.93080674 -11 26 C-11.99 26 -12.98 26 -14 26 C-14 25.34 -14 24.68 -14 24 C-14.66 24 -15.32 24 -16 24 C-16 20.7 -16 17.4 -16 14 C-16.66 14 -17.32 14 -18 14 C-18 10.7 -18 7.4 -18 4 C-17.34 4 -16.68 4 -16 4 C-15.67 5.32 -15.34 6.64 -15 8 C-14.67 7.34 -14.34 6.68 -14 6 C-12.68 6 -11.36 6 -10 6 C-10 5.34 -10 4.68 -10 4 C-6.32547562 1.1605948 -4.73113419 0 0 0 Z " fill="#0949A0" transform="translate(32,26)"/>
<path d="M0 0 C0.33 0 0.66 0 1 0 C1.68850267 11.8192959 1.68850267 11.8192959 -0.875 15.75 C-1.926875 16.86375 -1.926875 16.86375 -3 18 C-3.66 18 -4.32 18 -5 18 C-5.33 18.99 -5.66 19.98 -6 21 C-7.65 20.67 -9.3 20.34 -11 20 C-11 20.66 -11 21.32 -11 22 C-16.28 22 -21.56 22 -27 22 C-27 21.34 -27 20.68 -27 20 C-27.66 20 -28.32 20 -29 20 C-29 19.34 -29 18.68 -29 18 C-30.32 18 -31.64 18 -33 18 C-34.42944945 15.64561267 -35.08661261 14.51967567 -34.625 11.75 C-34.41875 11.1725 -34.2125 10.595 -34 10 C-33.484375 10.928125 -32.96875 11.85625 -32.4375 12.8125 C-30.01570085 16.38191129 -27.17854944 18.04490299 -23 19 C-16.68774241 19.74140709 -10.53037098 19.35909369 -5 16 C-0.48567412 11.25417023 -0.24753643 6.26267177 0 0 Z " fill="#06499B" transform="translate(91,60)"/>
<path d="M0 0 C1.20855652 -0.0159874 2.41711304 -0.03197479 3.66229248 -0.04844666 C5.60304657 -0.05649071 5.60304657 -0.05649071 7.58300781 -0.06469727 C8.94053233 -0.07367889 10.29805593 -0.08280098 11.65557861 -0.09205627 C14.49664706 -0.10850191 17.33759833 -0.11623794 20.17871094 -0.11914062 C23.7943884 -0.12451235 27.40894225 -0.16215891 31.02430344 -0.20788479 C33.82814409 -0.23783868 36.63172046 -0.24486814 39.43570709 -0.24586678 C41.40864495 -0.25204274 43.38146711 -0.28141752 45.35418701 -0.31138611 C53.13564426 -0.27265786 59.36736064 0.63659222 65.78613281 5.30639648 C66.77613281 6.79139648 66.77613281 6.79139648 67.78613281 8.30639648 C66.30413379 7.85730587 64.82558045 7.39683084 63.34863281 6.93139648 C62.52492188 6.67616211 61.70121094 6.42092773 60.85253906 6.15795898 C58.78613281 5.30639648 58.78613281 5.30639648 57.78613281 3.30639648 C54.6227335 2.25193005 52.37124723 2.17333218 49.04882812 2.16113281 C47.87040344 2.15475296 46.69197876 2.14837311 45.47784424 2.14179993 C44.20286072 2.1406871 42.9278772 2.13957428 41.61425781 2.13842773 C40.30334167 2.13509933 38.99242554 2.13177094 37.64178467 2.12834167 C34.86437152 2.12235355 32.08698946 2.12050133 29.30957031 2.12109375 C25.76453104 2.12119509 22.21969332 2.10757093 18.67470169 2.09032154 C15.27955098 2.07646881 11.88443639 2.07711104 8.48925781 2.07592773 C7.22237122 2.06874222 5.95548462 2.0615567 4.65020752 2.05415344 C-1.34875174 2.06964971 -6.56661776 2.20093417 -12.21386719 4.30639648 C-12.21386719 3.64639648 -12.21386719 2.98639648 -12.21386719 2.30639648 C-8.00559884 0.72589859 -4.48798336 0.04513617 0 0 Z " fill="#2264BB" transform="translate(29.2138671875,4.693603515625)"/>
<path d="M0 0 C1.32 0.33 2.64 0.66 4 1 C1.78049082 3.72746243 0.61604954 4.89819274 -2.91070557 5.48101807 C-4.03877625 5.47213562 -5.16684692 5.46325317 -6.32910156 5.45410156 C-7.61012756 5.45379944 -8.89115356 5.45349731 -10.21099854 5.45318604 C-11.60421371 5.43276095 -12.9974225 5.41189699 -14.390625 5.390625 C-15.81979582 5.38316131 -17.2489769 5.37746898 -18.67816162 5.37347412 C-22.43327262 5.3582275 -26.18776125 5.31895516 -29.94262695 5.2746582 C-33.77676983 5.23368387 -37.61101362 5.21545856 -41.4453125 5.1953125 C-48.9638249 5.15245903 -56.48182512 5.08422067 -64 5 C-64 4.67 -64 4.34 -64 4 C-45.52 4 -27.04 4 -8 4 C-8 3.34 -8 2.68 -8 2 C-5.36 2 -2.72 2 0 2 C0 1.34 0 0.68 0 0 Z " fill="#1C4C8E" transform="translate(88,100)"/>
<path d="M0 0 C0.66 0 1.32 0 2 0 C2.33 5.28 2.66 10.56 3 16 C4.98 16.66 6.96 17.32 9 18 C9.33 18.66 9.66 19.32 10 20 C8.68 20 7.36 20 6 20 C5.67 19.67 5.34 19.34 5 19 C4.34 20.32 3.68 21.64 3 23 C2.01 22.67 1.02 22.34 0 22 C0 14.74 0 7.48 0 0 Z " fill="#0949A0" transform="translate(14,58)"/>
<path d="M0 0 C2.4375 1.875 2.4375 1.875 4 4 C4 4.66 4 5.32 4 6 C7.3 6 10.6 6 14 6 C14 6.33 14 6.66 14 7 C10.7 7.33 7.4 7.66 4 8 C4 8.66 4 9.32 4 10 C3.34 10 2.68 10 2 10 C2 9.01 2 8.02 2 7 C1.34 7 0.68 7 0 7 C0 6.34 0 5.68 0 5 C-0.66 5 -1.32 5 -2 5 C-2.33 4.01 -2.66 3.02 -3 2 C-3.99 1.67 -4.98 1.34 -6 1 C-6 1.66 -6 2.32 -6 3 C-6.66 3 -7.32 3 -8 3 C-8 4.98 -8 6.96 -8 9 C-10 7 -10 7 -10.3125 4.5 C-10.209375 3.675 -10.10625 2.85 -10 2 C-6.2794164 -0.48038907 -4.40203429 -0.46337203 0 0 Z " fill="#1A579B" transform="translate(76,37)"/>
<path d="M0 0 C0.125 5.75 0.125 5.75 -1 8 C-4.63782632 9.21260877 -7.17735999 9.39544552 -11 9 C-13.9375 6.6875 -13.9375 6.6875 -16 4 C-16 3.01 -16 2.02 -16 1 C-15.01 1 -14.02 1 -13 1 C-13 1.66 -13 2.32 -13 3 C-12.34 3 -11.68 3 -11 3 C-11 3.99 -11 4.98 -11 6 C-8.03 6.495 -8.03 6.495 -5 7 C-4.67 5.02 -4.34 3.04 -4 1 C-1 0 -1 0 0 0 Z " fill="#164B96" transform="translate(81,63)"/>
<path d="M0 0 C2.97 0 5.94 0 9 0 C9.66 1.65 10.32 3.3 11 5 C10.4225 4.690625 9.845 4.38125 9.25 4.0625 C7.15705816 3.07416636 5.25464725 2.4831387 3 2 C3 3.32 3 4.64 3 6 C3.66 6 4.32 6 5 6 C5 7.32 5 8.64 5 10 C5.66 10 6.32 10 7 10 C7.66 11.32 8.32 12.64 9 14 C5.49188148 13.02552263 4.06595224 12.07842969 1.6875 9.25 C-0.11001082 5.78812732 -0.36516955 3.83428028 0 0 Z " fill="#D9F0F8" transform="translate(17,64)"/>
<path d="M0 0 C3.3 0 6.6 0 10 0 C10.45375 0.94875 10.9075 1.8975 11.375 2.875 C12.80238254 6.00313679 12.80238254 6.00313679 15 8 C13.68 8.33 12.36 8.66 11 9 C11 8.01 11 7.02 11 6 C10.34 6 9.68 6 9 6 C9 5.34 9 4.68 9 4 C7.02 4 5.04 4 3 4 C2.67 5.32 2.34 6.64 2 8 C0.23537317 4.91190305 0 3.76687864 0 0 Z " fill="#D8EFF9" transform="translate(55,64)"/>
<path d="M0 0 C2.0625 1.625 2.0625 1.625 4 4 C3.9375 7.125 3.9375 7.125 3 10 C-0.08888522 12.05925681 -0.70935927 12.2390374 -4.1875 12.125 C-6.0746875 12.063125 -6.0746875 12.063125 -8 12 C-8 11.01 -8 10.02 -8 9 C-2.375 7 -2.375 7 1 7 C1 6.01 1 5.02 1 4 C0.34 3.67 -0.32 3.34 -1 3 C-0.67 2.01 -0.34 1.02 0 0 Z " fill="#104AA4" transform="translate(39,60)"/>
<path d="M0 0 C5.94 0 11.88 0 18 0 C18 0.33 18 0.66 18 1 C17.154375 1.01417969 16.30875 1.02835938 15.4375 1.04296875 C8.06566042 1.3529211 2.64167034 2.02375744 -3 7 C-4.95408024 9.12139833 -4.95408024 9.12139833 -6 11 C-6.625 8.1875 -6.625 8.1875 -7 5 C-6.34 4.01 -5.68 3.02 -5 2 C-2.375 1.8125 -2.375 1.8125 0 2 C0 1.34 0 0.68 0 0 Z " fill="#154A94" transform="translate(62,28)"/>
<path d="M0 0 C0.74886475 0.00523682 1.49772949 0.01047363 2.26928711 0.01586914 C3.07817383 0.0190918 3.88706055 0.02231445 4.72045898 0.02563477 C5.5705957 0.03401367 6.42073242 0.04239258 7.29663086 0.05102539 C8.15063477 0.05553711 9.00463867 0.06004883 9.88452148 0.06469727 C12.00108749 0.07652166 14.11761771 0.0944577 16.23413086 0.11352539 C16.23413086 0.77352539 16.23413086 1.43352539 16.23413086 2.11352539 C13.92413086 2.44352539 11.61413086 2.77352539 9.23413086 3.11352539 C9.23413086 3.44352539 9.23413086 3.77352539 9.23413086 4.11352539 C5.60413086 4.11352539 1.97413086 4.11352539 -1.76586914 4.11352539 C-2.09586914 3.12352539 -2.42586914 2.13352539 -2.76586914 1.11352539 C-1.76586914 0.11352539 -1.76586914 0.11352539 0 0 Z " fill="#FDFBFB" transform="translate(31.765869140625,73.886474609375)"/>
<path d="M0 0 C1.32 0.33 2.64 0.66 4 1 C4 1.99 4 2.98 4 4 C4.66 4 5.32 4 6 4 C6 4.66 6 5.32 6 6 C6.66 6 7.32 6 8 6 C8 6.66 8 7.32 8 8 C4.7 8 1.4 8 -2 8 C-2 6.02 -2 4.04 -2 2 C-1.34 2 -0.68 2 0 2 C0 1.34 0 0.68 0 0 Z " fill="#0647B5" transform="translate(70,38)"/>
<path d="M0 0 C4.54448498 1.96239124 7.5703473 3.60793551 10 8 C10.42593945 11.37557012 10.51265653 14.63196582 10 18 C9.34 18.66 8.68 19.32 8 20 C7.93941406 19.32453125 7.87882812 18.6490625 7.81640625 17.953125 C7.73261719 17.06109375 7.64882813 16.1690625 7.5625 15.25 C7.48128906 14.36828125 7.40007813 13.4865625 7.31640625 12.578125 C7.03761535 10.30649548 6.61209423 8.20148177 6 6 C5.34 6 4.68 6 4 6 C4 5.34 4 4.68 4 4 C2.68 3.67 1.36 3.34 0 3 C0 2.01 0 1.02 0 0 Z " fill="#DFF7F9" transform="translate(42,52)"/>
<path d="M0 0 C4.74418605 2.37209302 4.74418605 2.37209302 5.6875 4.6875 C6.10859258 7.80358511 6.06037884 10.86030043 6 14 C5.67 14 5.34 14 5 14 C4.938125 12.8553125 4.938125 12.8553125 4.875 11.6875 C4.24325908 8.68154231 4.24325908 8.68154231 1 7.4375 C0.01 6.963125 -0.98 6.48875 -2 6 C-2.875 3.8125 -2.875 3.8125 -3 2 C-2.01 1.34 -1.02 0.68 0 0 Z " fill="#1F5BB2" transform="translate(51,32)"/>
<path d="M0 0 C1.32 0 2.64 0 4 0 C4 0.66 4 1.32 4 2 C5.98 2 7.96 2 10 2 C10 2.66 10 3.32 10 4 C10.9075 3.938125 11.815 3.87625 12.75 3.8125 C16.28982642 4.01672076 17.44931155 4.64551835 20 7 C19.67 7.99 19.34 8.98 19 10 C18.29101562 9.54625 17.58203125 9.0925 16.8515625 8.625 C13.21644059 6.55347848 9.48497536 5.36492341 5.5234375 4.0625 C3.02742476 3.01154727 1.73111863 2.04481127 0 0 Z " fill="#DAF2FA" transform="translate(22,52)"/>
<path d="M0 0 C0.33 0.66 0.66 1.32 1 2 C0.27554688 2.02578125 -0.44890625 2.0515625 -1.1953125 2.078125 C-7.30059563 2.43630161 -11.36729812 2.86813075 -16 7 C-16 7.66 -16 8.32 -16 9 C-16.66 9 -17.32 9 -18 9 C-18.66 9.66 -19.32 10.32 -20 11 C-19.71711523 7.60538272 -19.25867941 6.25867941 -16.8125 3.8125 C-11.17442414 0.17907333 -6.52417124 -0.22497142 0 0 Z " fill="#222222" transform="translate(240,23)"/>
<path d="M0 0 C0.33 0 0.66 0 1 0 C1.68850267 11.8192959 1.68850267 11.8192959 -0.875 15.75 C-1.926875 16.86375 -1.926875 16.86375 -3 18 C-3.66 18 -4.32 18 -5 18 C-5.33 18.99 -5.66 19.98 -6 21 C-7.65 20.67 -9.3 20.34 -11 20 C-11 20.66 -11 21.32 -11 22 C-11.99 21.67 -12.98 21.34 -14 21 C-13 19 -13 19 -11.29296875 18.359375 C-10.59816406 18.15828125 -9.90335937 17.9571875 -9.1875 17.75 C-6.06035371 16.61234642 -4.94511449 15.94229985 -2.5625 13.4375 C-0.53331237 8.97328722 -0.19205904 4.85909373 0 0 Z " fill="#1A4E88" transform="translate(91,60)"/>
<path d="M0 0 C1.65 0.33 3.3 0.66 5 1 C5 2.32 5 3.64 5 5 C5.66 5 6.32 5 7 5 C7 6.32 7 7.64 7 9 C5.02 9 3.04 9 1 9 C1 7.02 1 5.04 1 3 C0.34 3 -0.32 3 -1 3 C-0.67 2.01 -0.34 1.02 0 0 Z " fill="#F9FBF5" transform="translate(81,33)"/>
<path d="M0 0 C0 0.66 0 1.32 0 2 C1.98 2 3.96 2 6 2 C6 2.33 6 2.66 6 3 C5.03900391 3.03867187 5.03900391 3.03867187 4.05859375 3.078125 C-3.00802256 3.54150968 -7.57763553 4.90883209 -12.9375 9.75 C-13.4634375 10.36875 -13.4634375 10.36875 -14 11 C-14 9.35 -14 7.7 -14 6 C-12.68 6 -11.36 6 -10 6 C-10 5.34 -10 4.68 -10 4 C-6.32547562 1.1605948 -4.73113419 0 0 0 Z " fill="#124490" transform="translate(32,26)"/>
<path d="M0 0 C0.33 0.99 0.66 1.98 1 3 C0.01 3.33 -0.98 3.66 -2 4 C-2.73323796 6.01508358 -2.73323796 6.01508358 -3 8 C-3.99 8 -4.98 8 -6 8 C-6 9.32 -6 10.64 -6 12 C-6.66 12 -7.32 12 -8 12 C-7.74297526 7.6305794 -7.39976667 5.48177009 -4.5625 2.0625 C-2 0 -2 0 0 0 Z " fill="#1F55A2" transform="translate(16,10)"/>
<path d="M0 0 C3.32382587 4.33542505 4.12018668 6.47141274 4 12 C0.46029282 13.17990239 -2.28183899 13.19569268 -6 13 C-7.32 12.34 -8.64 11.68 -10 11 C-4.06 10.505 -4.06 10.505 2 10 C1.505 8.63875 1.505 8.63875 1 7.25 C0 4 0 4 0 0 Z " fill="#5C5C5C" transform="translate(320,32)"/>
<path d="M0 0 C1.98 0 3.96 0 6 0 C6 0.66 6 1.32 6 2 C6.66 2 7.32 2 8 2 C8 3.32 8 4.64 8 6 C6.02 6 4.04 6 2 6 C2 5.34 2 4.68 2 4 C1.34 4 0.68 4 0 4 C0 2.68 0 1.36 0 0 Z " fill="#FBFAF4" transform="translate(58,68)"/>
<path d="M0 0 C0 0.33 0 0.66 0 1 C-3.63 1 -7.26 1 -11 1 C-11 1.66 -11 2.32 -11 3 C-11.99 3 -12.98 3 -14 3 C-14 4.32 -14 5.64 -14 7 C-15.98 7 -17.96 7 -20 7 C-18.838389 3.51516701 -17.48842447 2.52828062 -14.3203125 0.78515625 C-9.69988505 -0.77832173 -4.81107558 -0.28439856 0 0 Z " fill="#CDEAF8" transform="translate(40,29)"/>
<path d="M0 0 C3.04376178 2.02917452 3.74810874 2.72582285 5 6 C5 7.32 5 8.64 5 10 C1.7 10 -1.6 10 -5 10 C-5.66 8.35 -6.32 6.7 -7 5 C-5.0625 5.375 -5.0625 5.375 -3 6 C-2.67 6.66 -2.34 7.32 -2 8 C-0.68 8.33 0.64 8.66 2 9 C1.34 6.03 0.68 3.06 0 0 Z " fill="#D5F3FB" transform="translate(46,33)"/>
<path d="M0 0 C2.31 0 4.62 0 7 0 C3.03156922 3.14737614 0.11198737 4.14953393 -4.9375 4.1875 C-5.79214844 4.20167969 -6.64679687 4.21585937 -7.52734375 4.23046875 C-10 4 -10 4 -14 2 C-9.38 1.67 -4.76 1.34 0 1 C0 0.67 0 0.34 0 0 Z " fill="#CEE9F4" transform="translate(40,76)"/>
<path d="M0 0 C0.66 0.33 1.32 0.66 2 1 C2.72870472 3.31470912 3.39239518 5.6505947 4 8 C4.33 8.99 4.66 9.98 5 11 C4.34 11 3.68 11 3 11 C1.88625 9.8553125 1.88625 9.8553125 0.75 8.6875 C-2.02695205 5.97366049 -4.47405199 4.55797703 -8 3 C-5.92446352 2.4465236 -4.15634036 2 -2 2 C-1.34 1.34 -0.68 0.68 0 0 Z " fill="#154D9C" transform="translate(86,48)"/>
<path d="M0 0 C1.32 0.33 2.64 0.66 4 1 C2.5 3 2.5 3 0 5 C-2.75871627 5.35800135 -5.20097524 5.18660165 -8 5 C-8 4.01 -8 3.02 -8 2 C-5.36 2 -2.72 2 0 2 C0 1.34 0 0.68 0 0 Z " fill="#134B9E" transform="translate(88,100)"/>
<path d="M0 0 C2.475 0.495 2.475 0.495 5 1 C5 1.66 5 2.32 5 3 C5.66 3 6.32 3 7 3 C7 3.66 7 4.32 7 5 C7.66 5 8.32 5 9 5 C9.33 8.3 9.66 11.6 10 15 C9.01 15.495 9.01 15.495 8 16 C7.85304688 15.11248047 7.85304688 15.11248047 7.703125 14.20703125 C6.51500469 7.92842994 4.54027841 4.54027841 0 0 Z " fill="#1C4C92" transform="translate(45,53)"/>
<path d="M0 0 C3.68754757 0.49831724 5.60490662 1.10067643 8 4 C7.01 5.485 7.01 5.485 6 7 C3.69 6.34 1.38 5.68 -1 5 C-0.67 3.35 -0.34 1.7 0 0 Z " fill="#0D4B9F" transform="translate(20,53)"/>
<path d="M0 0 C3.3 0 6.6 0 10 0 C9.67 1.32 9.34 2.64 9 4 C6.36 4 3.72 4 1 4 C0.67 2.68 0.34 1.36 0 0 Z " fill="#FCFCFA" transform="translate(69,74)"/>
<path d="M0 0 C0.99 0 1.98 0 3 0 C3 0.66 3 1.32 3 2 C2.34 2 1.68 2 1 2 C1 3.32 1 4.64 1 6 C0.34 6 -0.32 6 -1 6 C-1 6.66 -1 7.32 -1 8 C-1.66 8 -2.32 8 -3 8 C-3 8.66 -3 9.32 -3 10 C-3.66 10 -4.32 10 -5 10 C-5 8.68 -5 7.36 -5 6 C-4.34 6 -3.68 6 -3 6 C-3 4.68 -3 3.36 -3 2 C-2.01 2 -1.02 2 0 2 C0 1.34 0 0.68 0 0 Z " fill="#FAFCF4" transform="translate(29,30)"/>
<path d="M0 0 C0.33 1.32 0.66 2.64 1 4 C1.66 4 2.32 4 3 4 C3 5.98 3 7.96 3 10 C2.34 10 1.68 10 1 10 C1 13.3 1 16.6 1 20 C0.67 20 0.34 20 0 20 C0 13.4 0 6.8 0 0 Z " fill="#074B9A" transform="translate(7,22)"/>
<path d="M0 0 C3.55416882 3.7086979 3.84208758 7.02575871 4 12 C3.01 12.99 2.02 13.98 1 15 C1 12.03 1 9.06 1 6 C0.34 5.67 -0.32 5.34 -1 5 C-0.67 3.35 -0.34 1.7 0 0 Z " fill="#2F5DA5" transform="translate(99,16)"/>
<path d="M0 0 C0.99 0 1.98 0 3 0 C3 1.32 3 2.64 3 4 C3.66 4 4.32 4 5 4 C5.33 3.34 5.66 2.68 6 2 C7 3 7 3 7.0625 5.5625 C7.041875 6.366875 7.02125 7.17125 7 8 C1.33846154 5.53846154 1.33846154 5.53846154 -0.375 2.8125 C-0.58125 2.214375 -0.7875 1.61625 -1 1 C-0.67 0.67 -0.34 0.34 0 0 Z " fill="#114C9B" transform="translate(9,92)"/>
<path d="M0 0 C2.97 0 5.94 0 9 0 C9 0.66 9 1.32 9 2 C6.66785852 3.20628008 4.50357861 4.1654738 2 5 C1.34 3.35 0.68 1.7 0 0 Z " fill="#0C4A99" transform="translate(27,66)"/>
<path d="M0 0 C2.31 0 4.62 0 7 0 C7 1.32 7 2.64 7 4 C7.99 4.33 8.98 4.66 10 5 C9.01 5.495 9.01 5.495 8 6 C6.0546875 5.22265625 6.0546875 5.22265625 3.875 4.0625 C3.15054688 3.68222656 2.42609375 3.30195312 1.6796875 2.91015625 C1.12539062 2.60980469 0.57109375 2.30945312 0 2 C0 1.34 0 0.68 0 0 Z " fill="#E1F3FA" transform="translate(63,52)"/>
<path d="M0 0 C0.66 0 1.32 0 2 0 C2 1.98 2 3.96 2 6 C-1.75 7.125 -1.75 7.125 -4 6 C-4 4.68 -4 3.36 -4 2 C-2.68 2 -1.36 2 0 2 C0 1.34 0 0.68 0 0 Z " fill="#064BB2" transform="translate(32,38)"/>
<path d="M0 0 C2.82405426 0.05637858 3.75432284 0.08136713 6.0625 1.8125 C6.5575 2.555 6.5575 2.555 7.0625 3.3125 C6.7325 3.9725 6.4025 4.6325 6.0625 5.3125 C3.0905615 4.18798273 0.72809313 3.08956209 -1.9375 1.3125 C-1.9375 1.9725 -1.9375 2.6325 -1.9375 3.3125 C-3.2575 2.9825 -4.5775 2.6525 -5.9375 2.3125 C-3.9375 0.3125 -3.9375 0.3125 0 0 Z " fill="#1E4E8E" transform="translate(33.9375,36.6875)"/>
<path d="M0 0 C2.91517292 1.07401108 4.77810176 1.77810176 7 4 C6.625 6.125 6.625 6.125 6 8 C5.34 8 4.68 8 4 8 C3.67 7.01 3.34 6.02 3 5 C2.34 5 1.68 5 1 5 C0.67 3.35 0.34 1.7 0 0 Z " fill="#0C4797" transform="translate(92,11)"/>
<path d="M0 0 C0.495 0.7425 0.99 1.485 1.5 2.25 C4.59875158 5.65862674 7.82766134 7.18726063 12 9 C12 9.33 12 9.66 12 10 C10.02 10 8.04 10 6 10 C6 9.34 6 8.68 6 8 C4.68 8 3.36 8 2 8 C0.23537317 4.91190305 0 3.76687864 0 0 Z " fill="#24508B" transform="translate(56,70)"/>
<path d="M0 0 C3.3 0 6.6 0 10 0 C10 0.66 10 1.32 10 2 C7.69 2.33 5.38 2.66 3 3 C3 3.33 3 3.66 3 4 C1.35 4 -0.3 4 -2 4 C-2 3.34 -2 2.68 -2 2 C-1.34 2 -0.68 2 0 2 C0 1.34 0 0.68 0 0 Z " fill="#F8FBEE" transform="translate(38,74)"/>
<path d="M0 0 C0.33 1.32 0.66 2.64 1 4 C1.66 4 2.32 4 3 4 C3 4.66 3 5.32 3 6 C4.32 6 5.64 6 7 6 C7 6.66 7 7.32 7 8 C8.32 8 9.64 8 11 8 C11 8.66 11 9.32 11 10 C6.18720039 9.55229771 3.35645009 8.55388833 0 5 C-0.3125 2.25 -0.3125 2.25 0 0 Z " fill="#345F93" transform="translate(27,40)"/>
<path d="M0 0 C0.66 0.33 1.32 0.66 2 1 C1.34 2.32 0.68 3.64 0 5 C-3.3 5 -6.6 5 -10 5 C-10 4.34 -10 3.68 -10 3 C-9.36191406 2.95101562 -8.72382813 2.90203125 -8.06640625 2.8515625 C-7.24011719 2.77679688 -6.41382813 2.70203125 -5.5625 2.625 C-4.73878906 2.55539063 -3.91507813 2.48578125 -3.06640625 2.4140625 C-2.38449219 2.27742188 -1.70257813 2.14078125 -1 2 C-0.67 1.34 -0.34 0.68 0 0 Z " fill="#7F7F7F" transform="translate(158,40)"/>
<path d="M0 0 C0.99 0.33 1.98 0.66 3 1 C2.67 3.97 2.34 6.94 2 10 C1.34 10 0.68 10 0 10 C-1.125 6.6875 -1.125 6.6875 -2 3 C-1.34 2.01 -0.68 1.02 0 0 Z " fill="#FAFDF5" transform="translate(20,38)"/>
<path d="M0 0 C0.66 1.32 1.32 2.64 2 4 C1.01 4.495 1.01 4.495 0 5 C0 5.66 0 6.32 0 7 C-2.31 7 -4.62 7 -7 7 C-6.67 6.34 -6.34 5.68 -6 5 C-4.68 5 -3.36 5 -2 5 C-1.855625 4.360625 -1.71125 3.72125 -1.5625 3.0625 C-1 1 -1 1 0 0 Z " fill="#014BB8" transform="translate(76,63)"/>
<path d="M0 0 C0.33 0 0.66 0 1 0 C1.08153933 1.58246707 1.13943557 3.16616273 1.1875 4.75 C1.22230469 5.63171875 1.25710937 6.5134375 1.29296875 7.421875 C0.94923684 10.44671583 -0.00227459 11.75583602 -2 14 C-3.49341969 11.01316063 -2.40648676 9.04839022 -1.5625 5.875 C-1.27503906 4.77929688 -0.98757812 3.68359375 -0.69140625 2.5546875 C-0.46324219 1.71164063 -0.23507813 0.86859375 0 0 Z " fill="#D0EAF5" transform="translate(90,60)"/>
<path d="M0 0 C2.0625 1.625 2.0625 1.625 4 4 C3.875 7.1875 3.875 7.1875 3 10 C2.01 10.495 2.01 10.495 1 11 C1 8.69 1 6.38 1 4 C0.34 3.67 -0.32 3.34 -1 3 C-0.67 2.01 -0.34 1.02 0 0 Z " fill="#2F599B" transform="translate(39,60)"/>
<path d="M0 0 C2.41466913 1.20733457 4.69115369 2.60254039 7 4 C6.67 4.66 6.34 5.32 6 6 C5.01 6 4.02 6 3 6 C2.67 6.66 2.34 7.32 2 8 C2 7.34 2 6.68 2 6 C1.34 6 0.68 6 0 6 C0 4.02 0 2.04 0 0 Z " fill="#0449A1" transform="translate(34,38)"/>
<path d="M0 0 C0.515625 0.2475 1.03125 0.495 1.5625 0.75 C0.139375 1.678125 0.139375 1.678125 -1.3125 2.625 C-4.38195109 4.56970969 -4.38195109 4.56970969 -6.4375 6.75 C-7.4275 5.76 -8.4175 4.77 -9.4375 3.75 C-3.0375 -0.31153846 -3.0375 -0.31153846 0 0 Z " fill="#D3EBF7" transform="translate(69.4375,29.25)"/>
<path d="M0 0 C0.33 0 0.66 0 1 0 C1.10251672 5.12583611 1.03590199 9.94997778 0 15 C-1.32 14.34 -2.64 13.68 -4 13 C-3.525625 12.34 -3.05125 11.68 -2.5625 11 C-0.58682146 7.2066972 -0.35972537 4.24475932 0 0 Z " fill="#285BA8" transform="translate(52,62)"/>
<path d="M0 0 C0 0.33 0 0.66 0 1 C-1.98 1 -3.96 1 -6 1 C-6 1.66 -6 2.32 -6 3 C-6.66 3 -7.32 3 -8 3 C-8 4.98 -8 6.96 -8 9 C-10 7 -10 7 -10.3125 4.5 C-10.209375 3.675 -10.10625 2.85 -10 2 C-6.3558226 -0.4294516 -4.28758728 -0.16179575 0 0 Z " fill="#245292" transform="translate(76,37)"/>
<path d="M0 0 C5.73071096 1.84548319 9.06036945 3.44480217 13 8 C11.51800098 7.55090939 10.03944764 7.09043436 8.5625 6.625 C7.73878906 6.36976562 6.91507812 6.11453125 6.06640625 5.8515625 C4 5 4 5 3 3 C2.01 2.67 1.02 2.34 0 2 C0 1.34 0 0.68 0 0 Z " fill="#336AB1" transform="translate(84,5)"/>
<path d="M0 0 C2.31 0 4.62 0 7 0 C6.67 1.32 6.34 2.64 6 4 C4.68 4 3.36 4 2 4 C2 3.34 2 2.68 2 2 C1.34 2 0.68 2 0 2 C0 1.34 0 0.68 0 0 Z " fill="#07479E" transform="translate(32,60)"/>
<path d="M0 0 C0.33 0 0.66 0 1 0 C1.13277344 0.69867188 1.26554687 1.39734375 1.40234375 2.1171875 C1.57894531 3.02726562 1.75554688 3.93734375 1.9375 4.875 C2.11152344 5.77992187 2.28554688 6.68484375 2.46484375 7.6171875 C2.89963701 9.99956317 2.89963701 9.99956317 4 12 C3.01 12 2.02 12 1 12 C1 11.34 1 10.68 1 10 C0.34 10 -0.32 10 -1 10 C-0.67 6.7 -0.34 3.4 0 0 Z " fill="#2D59A2" transform="translate(17,40)"/>
<path d="M0 0 C1.32 0.33 2.64 0.66 4 1 C4 2.65 4 4.3 4 6 C2.68 6 1.36 6 0 6 C0 4.02 0 2.04 0 0 Z " fill="#0849A7" transform="translate(70,38)"/>
<path d="M0 0 C4.00594152 0.6162987 6.72993881 2.70399959 10 5 C10.99 5.66 11.98 6.32 13 7 C8.83379743 7.34292736 6.93446935 6.66129845 3.6875 4.0625 C2.99011719 3.51722656 2.29273438 2.97195312 1.57421875 2.41015625 C1.05472656 1.94480469 0.53523437 1.47945313 0 1 C0 0.67 0 0.34 0 0 Z " fill="#4F81C3" transform="translate(11,98)"/>
<path d="M0 0 C1.32 0 2.64 0 4 0 C4 0.66 4 1.32 4 2 C5.98 2 7.96 2 10 2 C9.67 2.99 9.34 3.98 9 5 C5.22454612 3.90931332 2.52956528 3.0916909 0 0 Z " fill="#D1E9F8" transform="translate(22,52)"/>
<path d="M0 0 C0.99 0.33 1.98 0.66 3 1 C1.9024777 3.99324263 1.32317108 4.84610901 -1.625 6.25 C-2.40875 6.4975 -3.1925 6.745 -4 7 C-3.34 5.35 -2.68 3.7 -2 2 C-1.34 2 -0.68 2 0 2 C0 1.34 0 0.68 0 0 Z " fill="#3B6CAF" transform="translate(94,96)"/>
<path d="M0 0 C4.455 0.99 4.455 0.99 9 2 C5.5647952 4.29013653 4.014669 4.17842973 0 4 C0 2.68 0 1.36 0 0 Z " fill="#DEF5F7" transform="translate(28,70)"/>
<path d="M0 0 C2.64 0 5.28 0 8 0 C7.34 1.32 6.68 2.64 6 4 C5.34 4 4.68 4 4 4 C4 3.34 4 2.68 4 2 C2.68 2 1.36 2 0 2 C0 1.34 0 0.68 0 0 Z " fill="#0646B9" transform="translate(64,62)"/>
<path d="M0 0 C2.97 0 5.94 0 9 0 C9 0.33 9 0.66 9 1 C7.35 1 5.7 1 4 1 C4 1.66 4 2.32 4 3 C2.35 3 0.7 3 -1 3 C-0.67 2.01 -0.34 1.02 0 0 Z " fill="#2C5A9B" transform="translate(42,43)"/>
<path d="M0 0 C1.32 0.33 2.64 0.66 4 1 C2.8553125 1.6496875 2.8553125 1.6496875 1.6875 2.3125 C-0.58093768 3.73686785 -2.2199723 5.03260097 -4 7 C-4 5.35 -4 3.7 -4 2 C-2.68 2 -1.36 2 0 2 C0 1.34 0 0.68 0 0 Z " fill="#1C5091" transform="translate(22,30)"/>
<path d="M0 0 C0.763125 0.20625 1.52625 0.4125 2.3125 0.625 C2.3125 1.285 2.3125 1.945 2.3125 2.625 C-0.5625 3.25 -0.5625 3.25 -3.6875 3.625 C-4.3475 2.965 -5.0075 2.305 -5.6875 1.625 C-2.6875 -0.375 -2.6875 -0.375 0 0 Z " fill="#F2FDF8" transform="translate(73.6875,29.375)"/>
<path d="M0 0 C3.3 0.99 6.6 1.98 10 3 C10 3.33 10 3.66 10 4 C3.375 4.25 3.375 4.25 0 2 C0 1.34 0 0.68 0 0 Z " fill="#DAF2FA" transform="translate(31,48)"/>
<path d="M0 0 C3.26954202 0.56371414 4.82575883 1.49962266 7 4 C6.01 4.495 6.01 4.495 5 5 C2.375 4.0625 2.375 4.0625 0 3 C0 2.01 0 1.02 0 0 Z " fill="#1E4FA1" transform="translate(38,48)"/>
<path d="M0 0 C0.66 0.33 1.32 0.66 2 1 C1.34 2.98 0.68 4.96 0 7 C-0.66 6.67 -1.32 6.34 -2 6 C-2.625 3.9375 -2.625 3.9375 -3 2 C-2.01 1.34 -1.02 0.68 0 0 Z " fill="#2055A8" transform="translate(51,32)"/>
<path d="M0 0 C1.32 0 2.64 0 4 0 C4 1.32 4 2.64 4 4 C2.68 4.33 1.36 4.66 0 5 C0 3.35 0 1.7 0 0 Z " fill="#124EB9" transform="translate(26,62)"/>
<path d="M0 0 C0.66 0.99 1.32 1.98 2 3 C0.35 4.32 -1.3 5.64 -3 7 C-3.66 6.67 -4.32 6.34 -5 6 C-3.35 4.02 -1.7 2.04 0 0 Z " fill="#1A1A1A" transform="translate(336,49)"/>
<path d="M0 0 C0.66 0 1.32 0 2 0 C2 0.66 2 1.32 2 2 C2.66 2 3.32 2 4 2 C4 2.66 4 3.32 4 4 C3.34 4 2.68 4 2 4 C1.67 4.99 1.34 5.98 1 7 C0.67 7 0.34 7 0 7 C0 4.69 0 2.38 0 0 Z " fill="#0148BB" transform="translate(88,46)"/>
<path d="M0 0 C0.99 0.495 0.99 0.495 2 1 C2 2.32 2 3.64 2 5 C2.66 5 3.32 5 4 5 C3.67 6.32 3.34 7.64 3 9 C0.70620251 5.55930376 0 4.27709699 0 0 Z " fill="#DDF5FC" transform="translate(18,43)"/>
</svg>
